<?xml version="1.0" standalone="no"?>
<!DOCTYPE svg PUBLIC "-//W3C//DTD SVG 1.1//EN" "http://www.w3.org/Graphics/SVG/1.1/DTD/svg11.dtd" >
<svg xmlns="http://www.w3.org/2000/svg" xmlns:xlink="http://www.w3.org/1999/xlink" version="1.1">
<metadata>
Created by FontForge 20170731 at Sun Dec 15 18:47:50 2019
 By Aleksey,,,
Copyright (c) 2019 by Emil Bertell. All rights reserved.
</metadata>
<defs>
<font id="Tapas-Sans" horiz-adv-x="1006" >
  <font-face 
    font-family="Tapas-Sans"
    font-weight="700"
    font-stretch="normal"
    units-per-em="1000"
    panose-1="1 0 0 0 0 0 0 0 0 0"
    ascent="800"
    descent="-200"
    x-height="700"
    cap-height="700"
    bbox="-584 -323 1906 1260"
    underline-thickness="50"
    underline-position="-200"
    unicode-range="U+0020-25CA"
  />
<missing-glyph horiz-adv-x="500" 
d="M410 800v-1000h-317v1000h317zM333 733h-165v-33h65v-37h-66v-33h166v33h-66v37h66v33zM267 604h-100v-104h166v34h-66v70zM233 570v-36h-33v36h33zM333 473h-166v-33h66v-37h-66v-33h100v70h66v33zM333 413h-33v-66h-133v-34h166v100zM333 291h-100v-56h34v23h33v-47
h-100v80h-33v-113h166v113zM333 118h-166v-113h166v113zM300 85v-47h-100v47h100zM333 -18h-166v-33h70l-70 -47v-33h166v33h-102l70 47h32v33z" />
    <glyph glyph-name=".notdef" horiz-adv-x="500" 
d="M410 800v-1000h-317v1000h317zM333 733h-165v-33h65v-37h-66v-33h166v33h-66v37h66v33zM267 604h-100v-104h166v34h-66v70zM233 570v-36h-33v36h33zM333 473h-166v-33h66v-37h-66v-33h100v70h66v33zM333 413h-33v-66h-133v-34h166v100zM333 291h-100v-56h34v23h33v-47
h-100v80h-33v-113h166v113zM333 118h-166v-113h166v113zM300 85v-47h-100v47h100zM333 -18h-166v-33h70l-70 -47v-33h166v33h-102l70 47h32v33z" />
    <glyph glyph-name=".null" horiz-adv-x="0" 
 />
    <glyph glyph-name="nonmarkingreturn" horiz-adv-x="333" 
 />
    <glyph glyph-name="space" unicode=" " horiz-adv-x="400" 
 />
    <glyph glyph-name="exclam" unicode="!" horiz-adv-x="488" 
d="M156 700h172v-459h-172v459zM244 -20q-45 0 -76.5 32t-31.5 76q0 45 31.5 77t76.5 32t76.5 -32t31.5 -77q0 -44 -31.5 -76t-76.5 -32z" />
    <glyph glyph-name="quotedbl" unicode="&#x22;" horiz-adv-x="587" 
d="M80 700l36 -277h123l36 277h-195zM312 700l36 -277h123l36 277h-195z" />
    <glyph glyph-name="numbersign" unicode="#" horiz-adv-x="1083" 
d="M978 435h-106l-53 -170h115l-38 -141h-120l-38 -124h-172l38 124h-276l-38 -124h-172l38 124h-89l38 141h94l53 170h-103l38 141h108l38 124h172l-38 -124h276l38 124h172l-38 -124h101zM647 265l53 170h-276l-53 -170h276z" />
    <glyph glyph-name="dollar" unicode="$" horiz-adv-x="868" 
d="M804 241q0 -170 -242 -209v-85h-93v77q-12 -1 -37 -1h-37v-76h-93v82q-130 12 -226 55l-1 180q94 -70 227 -92v115q-130 17 -188 62t-58 128q0 82 65 130t181 64v82h93v-74h30q30 0 44 -1v75h93v-81q110 -12 188 -42v-171q-92 50 -188 67v-112q130 -14 186 -54.5
t56 -118.5zM425 538h-30v-115q28 -2 45 -2q5 0 15 -0.5t14 -0.5v117q-14 1 -44 1zM213 484q0 -21 20 -33.5t69 -19.5v101q-89 -10 -89 -48zM432 163q25 0 37 1v111q-6 1 -18.5 1.5t-18.5 0.5t-18.5 0.5t-18.5 1.5v-115q12 -1 37 -1zM562 172q84 14 84 52q0 19 -18.5 29
t-65.5 15v-96z" />
    <glyph glyph-name="percent" unicode="%" horiz-adv-x="1346" 
d="M323 295q-125 0 -204 55t-79 159t79 159t204 55t204 -55t79 -159t-79 -159t-204 -55zM1105 700l-660 -700h-209l660 700h209zM323 425q137 0 137 84t-137 84t-137 -84t137 -84zM1023 -23q-125 0 -204 55t-79 159t79 159t204 55t204 -55t79 -159t-79 -159t-204 -55z
M1023 107q137 0 137 84t-137 84t-137 -84t137 -84z" />
    <glyph glyph-name="ampersand" unicode="&#x26;" horiz-adv-x="974" 
d="M1022 0h-267l-70 45q-146 -65 -337 -65q-157 0 -244.5 54.5t-87.5 166.5q0 71 51.5 124.5t167.5 69.5q-29 52 -29 112q0 57 21.5 99.5t60 67.5t86 37t103.5 12q117 0 190 -51.5t73 -157.5q0 -72 -49.5 -125t-137.5 -76l133 -89q62 56 73 139h174q-10 -136 -110 -230z
M477 580q-45 0 -75.5 -19.5t-30.5 -58.5q0 -55 64 -107q140 24 140 107q0 39 -27 58.5t-71 19.5zM348 127q100 0 180 20l-58 37q-94 61 -150 109q-73 -13 -101 -35t-28 -56t39 -54.5t118 -20.5z" />
    <glyph glyph-name="quotesingle" unicode="'" horiz-adv-x="355" 
d="M80 700l36 -277h123l36 277h-195z" />
    <glyph glyph-name="parenleft" unicode="(" horiz-adv-x="673" 
d="M275 349q0 128 79 201.5t212 95.5l-26 157q-91 -14 -167 -45.5t-139 -84t-98.5 -135.5t-35.5 -189t35.5 -189t98.5 -135.5t139 -84t167 -45.5l26 157q-133 22 -212 95.5t-79 201.5z" />
    <glyph glyph-name="parenright" unicode=")" horiz-adv-x="673" 
d="M398 349q0 -128 -79 -201.5t-212 -95.5l26 -157q91 14 167 45.5t139 84t98.5 135.5t35.5 189t-35.5 189t-98.5 135.5t-139 84t-167 45.5l-26 -157q133 -22 212 -95.5t79 -201.5z" />
    <glyph glyph-name="asterisk" unicode="*" horiz-adv-x="520" 
d="M471 485l-122 -14l92 -93l-128 -86l-53 124l-53 -124l-128 86l92 93l-122 14l46 147l112 -60l-24 128h154l-24 -128l112 60z" />
    <glyph glyph-name="plus" unicode="+" horiz-adv-x="745" 
d="M649 430v-147h-199v-167h-155v167h-199v147h199v168h155v-168h199z" />
    <glyph glyph-name="comma" unicode="," horiz-adv-x="380" 
d="M89 191h204l-99 -334h-135z" />
    <glyph glyph-name="hyphen" unicode="-" horiz-adv-x="746" 
d="M650 281h-554v151h554v-151z" />
    <glyph glyph-name="period" unicode="." horiz-adv-x="456" 
d="M228 -7q-47 0 -80.5 33.5t-33.5 80.5t33.5 80.5t80.5 33.5t80.5 -33.5t33.5 -80.5t-33.5 -80.5t-80.5 -33.5z" />
    <glyph glyph-name="slash" unicode="/" horiz-adv-x="806" 
d="M776 786l-560 -876h-186l560 876h186z" />
    <glyph glyph-name="zero" unicode="0" horiz-adv-x="936" 
d="M463 723q-84 0 -157.5 -23t-131 -68t-91 -117.5t-33.5 -165.5t33.5 -165.5t91 -116.5t131 -67t157.5 -23t157.5 23t131 67t91 116.5t33.5 165.5t-33.5 165.5t-91 117.5t-131 68t-157.5 23zM463 130q-110 0 -172 58.5t-62 160.5q0 103 62 162t172 59t172 -59t62 -162
q0 -102 -62 -160.5t-172 -58.5z" />
    <glyph glyph-name="one" unicode="1" horiz-adv-x="628" 
d="M333 700h132v-700h-172v522l-223 -78l-58 144z" />
    <glyph glyph-name="two" unicode="2" horiz-adv-x="833" 
d="M558 470q0 -56 -50.5 -94.5t-168.5 -87.5l-279 -116v-172h735v151h-429l84 31q142 53 214 122t72 178q0 66 -28.5 114.5t-79 75.5t-109.5 39t-129 12q-230 0 -345 -80v-186q60 55 149.5 84.5t195.5 29.5q81 0 124.5 -22.5t43.5 -78.5z" />
    <glyph glyph-name="three" unicode="3" horiz-adv-x="858" 
d="M245 278h195q166 0 166 -74q0 -72 -188 -72q-215 0 -335 106v-186q112 -72 335 -72q165 0 264 50.5t99 158.5q0 124 -151 161q131 41 131 156q0 107 -96 158t-247 51q-223 0 -335 -72v-186q120 106 335 106q168 0 168 -72q0 -74 -146 -74h-195v-139z" />
    <glyph glyph-name="four" unicode="4" horiz-adv-x="896" 
d="M847 278v-143h-136v-135h-172v135h-499v138l476 427h195v-422h136zM250 278h289v253z" />
    <glyph glyph-name="five" unicode="5" horiz-adv-x="785" 
d="M242 549h447v151h-605l-10 -402h353q79 0 112.5 -17t33.5 -57q0 -95 -188 -95q-215 0 -335 106v-186q126 -72 335 -72q77 0 139.5 13.5t114.5 42t80.5 79.5t28.5 121q0 107 -68.5 155.5t-216.5 48.5h-226z" />
    <glyph glyph-name="six" unicode="6" horiz-adv-x="860" 
d="M523 436q151 0 222 -50t71 -164q0 -84 -51.5 -139.5t-130.5 -77.5t-183 -22q-112 0 -200.5 38t-144.5 122.5t-56 205.5q0 91 34 162.5t92 115.5t131.5 67t155.5 23q164 0 285 -59v-189q-103 96 -285 96q-105 0 -169.5 -55.5t-68.5 -150.5q134 77 298 77zM461 135
q184 0 184 87q0 41 -32 57t-105 16q-138 0 -255 -65q56 -95 208 -95z" />
    <glyph glyph-name="seven" unicode="7" horiz-adv-x="756" 
d="M35 700h672v-129l-325 -571h-198l315 549h-464v151z" />
    <glyph glyph-name="eight" unicode="8" horiz-adv-x="908" 
d="M720 353q126 -43 126 -159q0 -76 -53 -125t-138 -69t-201 -20t-201 20t-138 69t-53 125q0 116 126 159q-96 47 -96 148q0 57 28 99.5t78.5 67t114.5 36t141 11.5t141 -11.5t114.5 -36t78.5 -67t28 -99.5q0 -101 -96 -148zM454 563q-89 0 -143 -19t-54 -58q0 -79 197 -79
q187 0 187 79q0 39 -51 58t-136 19zM454 132q217 0 217 77q0 79 -217 79t-217 -79q0 -77 217 -77z" />
    <glyph glyph-name="nine" unicode="9" horiz-adv-x="862" 
d="M401 717q112 0 200.5 -38t144.5 -122.5t56 -205.5q0 -91 -34 -162.5t-92 -115.5t-131.5 -67t-155.5 -23q-181 0 -316 59v189q114 -96 316 -96q102 0 166 52t71 142q-112 -67 -280 -67q-157 0 -233.5 51t-76.5 165q0 84 51.5 139.5t130.5 77.5t183 22zM207 478
q0 -41 37.5 -58t116.5 -17q150 0 244 56q-53 106 -214 106q-184 0 -184 -87z" />
    <glyph glyph-name="colon" unicode=":" horiz-adv-x="496" 
d="M248 403q-47 0 -80.5 33.5t-33.5 80.5t33.5 80.5t80.5 33.5t80.5 -33.5t33.5 -80.5t-33.5 -80.5t-80.5 -33.5zM248 -7q-47 0 -80.5 33.5t-33.5 80.5t33.5 80.5t80.5 33.5t80.5 -33.5t33.5 -80.5t-33.5 -80.5t-80.5 -33.5z" />
    <glyph glyph-name="semicolon" unicode=";" horiz-adv-x="420" 
d="M206 403q-47 0 -80.5 33.5t-33.5 80.5t33.5 80.5t80.5 33.5t80.5 -33.5t33.5 -80.5t-33.5 -80.5t-80.5 -33.5zM109 191h204l-99 -334h-135z" />
    <glyph glyph-name="less" unicode="&#x3c;" horiz-adv-x="695" 
d="M603 652v-155l-341 -137l341 -137v-155l-492 207v170z" />
    <glyph glyph-name="equal" unicode="=" horiz-adv-x="745" 
d="M649 392h-553v147h553v-147zM649 161h-553v147h553v-147z" />
    <glyph glyph-name="greater" unicode="&#x3e;" horiz-adv-x="695" 
d="M92 652l492 -207v-170l-492 -207v155l341 137l-341 137v155z" />
    <glyph glyph-name="question" unicode="?" horiz-adv-x="803" 
d="M568 498q0 -34 -33 -49.5t-108 -26.5l-167 -25v-155h172v47l85 14q229 38 229 204q0 59 -28.5 101t-79 64.5t-109 32.5t-129.5 10q-206 0 -345 -62v-186q63 43 153.5 69.5t191.5 26.5q88 0 128 -15.5t40 -49.5zM344 -24q-45 0 -76.5 32t-31.5 76q0 45 31.5 77t76.5 32
t76.5 -32t31.5 -77q0 -44 -31.5 -76t-76.5 -32z" />
    <glyph glyph-name="at" unicode="@" horiz-adv-x="1056" 
d="M524 723q233 0 357.5 -100t124.5 -277q0 -110 -52.5 -173t-145.5 -63q-62 0 -106.5 30t-57.5 94q-48 -86 -178 -86q-98 0 -161.5 52.5t-63.5 151.5t63.5 151.5t161.5 52.5q122 0 173 -77v58h144v-271q0 -68 51 -68q35 0 57.5 36.5t22.5 111.5q0 133 -99 215t-291 82
q-190 0 -286 -82.5t-96 -209.5t96 -208.5t286 -81.5q96 0 209 26v-84q-97 -22 -209 -22q-230 0 -352 99.5t-122 270.5t122 271.5t352 100.5zM514 271q124 0 124 81q0 83 -124 83t-124 -83q0 -81 124 -81z" />
    <glyph glyph-name="A" unicode="A" horiz-adv-x="940" 
d="M748 0l-70 150h-416l-70 -150h-180l334 700h248l334 -700h-180zM328 292h284l-142 304z" />
    <glyph glyph-name="B" unicode="B" horiz-adv-x="977" 
d="M783 372q141 -36 141 -165q0 -100 -85.5 -153.5t-241.5 -53.5h-464v700h445q297 0 297 -181q0 -101 -92 -147zM566 552h-261v-138h261q76 0 110 17t34 54q0 36 -33.5 51.5t-110.5 15.5zM600 148q83 0 121 19t38 62q0 34 -35.5 45.5t-123.5 11.5h-295v-138h295z" />
    <glyph glyph-name="C" unicode="C" horiz-adv-x="883" 
d="M483 139q-115 0 -181.5 55.5t-66.5 154.5q0 103 65.5 162.5t182.5 59.5q205 0 335 -116v196q-131 72 -335 72q-117 0 -210.5 -39.5t-153 -126t-59.5 -208.5q0 -92 35 -165t94.5 -117t134 -67t159.5 -23q207 0 335 72l1 199q-57 -54 -146 -81.5t-190 -27.5z" />
    <glyph glyph-name="D" unicode="D" horiz-adv-x="1016" 
d="M509 700q447 0 447 -351q0 -349 -447 -349h-376v700h376zM511 151q140 0 203 50t63 148t-63 149t-203 51h-206v-398h206z" />
    <glyph glyph-name="E" unicode="E" horiz-adv-x="947" 
d="M847 549h-542v-119h520v-138h-520v-140h542v-152h-714v700h714v-151z" />
    <glyph glyph-name="F" unicode="F" horiz-adv-x="917" 
d="M827 549h-522v-159h500v-138h-500v-252h-172v700h694v-151z" />
    <glyph glyph-name="G" unicode="G" horiz-adv-x="949" 
d="M362 416h526v-366q-143 -73 -391 -73q-88 0 -165.5 23t-139 67t-97 116.5t-35.5 165.5q0 92 35 165t95.5 118t138.5 68t168 23q215 0 341 -52v-196q-60 46 -150.5 71t-190.5 25q-124 0 -193 -59t-69 -163q0 -99 69.5 -154.5t192.5 -55.5q138 0 223 25v101h-358v151z" />
    <glyph glyph-name="H" unicode="H" horiz-adv-x="1099" 
d="M794 700h172v-700h-172v284h-489v-284h-172v700h172v-265h489v265z" />
    <glyph glyph-name="I" unicode="I" horiz-adv-x="438" 
d="M133 700h172v-700h-172v700z" />
    <glyph glyph-name="J" unicode="J" horiz-adv-x="772" 
d="M681 338q0 -356 -360 -356q-134 0 -260 60v195q121 -102 260 -102q93 0 140.5 48.5t47.5 154.5v362h172v-362z" />
    <glyph glyph-name="K" unicode="K" horiz-adv-x="918" 
d="M685 0l-237 340l-143 -117v-223h-172v700h172v-286l337 286h244l-307 -253l316 -447h-210z" />
    <glyph glyph-name="L" unicode="L" horiz-adv-x="797" 
d="M305 151h435v-151h-607v700h172v-549z" />
    <glyph glyph-name="M" unicode="M" horiz-adv-x="1290" 
d="M949 700h208v-700h-166v462l-267 -462h-159l-266 461v-461h-166v700h208l304 -527z" />
    <glyph glyph-name="N" unicode="N" horiz-adv-x="1035" 
d="M736 700h166v-700l-193 -2l-410 496v-494h-166v700h218l385 -465v465z" />
    <glyph glyph-name="O" unicode="O" 
d="M503 719q-72 0 -137 -14t-121 -44t-97 -73t-64.5 -104t-23.5 -135q0 -92 35.5 -163.5t97.5 -115.5t141 -66.5t169 -22.5t169 22.5t141 66.5t97.5 115.5t35.5 163.5q0 74 -23.5 135t-64.5 104t-97 73t-121 44t-137 14zM503 134q-124 0 -194 57t-70 158t70 159t194 58
t194 -58t70 -159t-70 -158t-194 -57z" />
    <glyph glyph-name="P" unicode="P" horiz-adv-x="889" 
d="M517 700q161 0 249.5 -55t88.5 -186t-88.5 -186t-249.5 -55h-212v-218h-172v700h384zM517 369q84 0 121.5 21t37.5 69t-37.5 69t-121.5 21h-212v-180h212z" />
    <glyph glyph-name="Q" unicode="Q" 
d="M946 349q0 -186 -141 -284l91 -120l-123 -90l-111 146q-71 -20 -159 -20q-90 0 -169 22.5t-141 66.5t-97.5 115.5t-35.5 163.5q0 74 23.5 135t64.5 104t97 73t121 44t137 14t137 -14t121 -44t97 -73t64.5 -104t23.5 -135zM503 134q29 0 55 3l-166 219l123 91l189 -250
q63 57 63 152q0 101 -70 159t-194 58t-194 -58t-70 -159t70 -158t194 -57z" />
    <glyph glyph-name="R" unicode="R" horiz-adv-x="971" 
d="M696 0l-223 238h-168v-238h-172v700h384q78 0 137 -11.5t105.5 -37t71 -71.5t24.5 -111q0 -165 -166 -212l242 -257h-235zM305 549v-160h202q93 0 133 18.5t40 61.5t-40 61.5t-133 18.5h-202z" />
    <glyph glyph-name="S" unicode="S" horiz-adv-x="868" 
d="M432 280q114 -5 158 -20t44 -53q0 -80 -202 -80q-220 0 -357 101l1 -190q134 -61 356 -61q78 0 142.5 13t117.5 41t82.5 77.5t29.5 116.5q0 113 -85.5 163.5t-278.5 57.5q-123 4 -168.5 19t-45.5 45q0 34 45.5 48t153.5 14q182 0 325 -89v181q-129 59 -325 59
q-169 0 -269 -53.5t-100 -163.5q0 -115 86.5 -166t289.5 -60z" />
    <glyph glyph-name="T" unicode="T" horiz-adv-x="826" 
d="M801 700v-151h-302v-549h-172v549h-302v151h776z" />
    <glyph glyph-name="U" unicode="U" horiz-adv-x="987" 
d="M722 399v301h172v-301q0 -108 -32 -190t-88.5 -129.5t-126.5 -70.5t-153 -23q-84 0 -154 23t-126.5 70.5t-88.5 129.5t-32 190v301h172v-301q0 -260 229 -260q228 0 228 260z" />
    <glyph glyph-name="V" unicode="V" horiz-adv-x="860" 
d="M688 700h180l-314 -700h-248l-314 700h180l258 -589z" />
    <glyph glyph-name="W" unicode="W" horiz-adv-x="1388" 
d="M1216 700h180l-314 -700h-178l-210 468l-210 -468h-178l-314 700h180l223 -501l223 501h152l223 -501z" />
    <glyph glyph-name="X" unicode="X" horiz-adv-x="906" 
d="M894 0h-225l-219 255l-214 -255h-224l316 365l-287 335h225l200 -226l192 226h223l-293 -335z" />
    <glyph glyph-name="Y" unicode="Y" horiz-adv-x="879" 
d="M889 700l-365 -439v-261h-172v263l-362 437h223l227 -291l225 291h224z" />
    <glyph glyph-name="Z" unicode="Z" horiz-adv-x="856" 
d="M338 151h468v-151h-727v138l422 411h-451v151h716v-129z" />
    <glyph glyph-name="bracketleft" unicode="[" horiz-adv-x="696" 
d="M339 54h284v-151h-456v896h456v-151h-284v-594z" />
    <glyph glyph-name="backslash" unicode="\" horiz-adv-x="806" 
d="M30 786h186l560 -876h-186z" />
    <glyph glyph-name="bracketright" unicode="]" horiz-adv-x="696" 
d="M357 54v594h-284v151h456v-896h-456v151h284z" />
    <glyph glyph-name="asciicircum" unicode="^" horiz-adv-x="917" 
d="M886 329h-199l-229 263l-229 -263h-199l336 371h184z" />
    <glyph glyph-name="underscore" unicode="_" horiz-adv-x="553" 
d="M554 -194h-554v151h554v-151z" />
    <glyph glyph-name="grave" unicode="`" horiz-adv-x="600" 
d="M63 914h224l201 -151h-193z" />
    <glyph glyph-name="a" unicode="a" horiz-adv-x="940" 
d="M748 0l-70 150h-416l-70 -150h-180l334 700h248l334 -700h-180zM328 292h284l-142 304z" />
    <glyph glyph-name="b" unicode="b" horiz-adv-x="977" 
d="M783 372q141 -36 141 -165q0 -100 -85.5 -153.5t-241.5 -53.5h-464v700h445q297 0 297 -181q0 -101 -92 -147zM566 552h-261v-138h261q76 0 110 17t34 54q0 36 -33.5 51.5t-110.5 15.5zM600 148q83 0 121 19t38 62q0 34 -35.5 45.5t-123.5 11.5h-295v-138h295z" />
    <glyph glyph-name="c" unicode="c" horiz-adv-x="883" 
d="M483 139q-115 0 -181.5 55.5t-66.5 154.5q0 103 65.5 162.5t182.5 59.5q205 0 335 -116v196q-131 72 -335 72q-117 0 -210.5 -39.5t-153 -126t-59.5 -208.5q0 -92 35 -165t94.5 -117t134 -67t159.5 -23q207 0 335 72l1 199q-57 -54 -146 -81.5t-190 -27.5z" />
    <glyph glyph-name="d" unicode="d" horiz-adv-x="1016" 
d="M509 700q447 0 447 -351q0 -349 -447 -349h-376v700h376zM511 151q140 0 203 50t63 148t-63 149t-203 51h-206v-398h206z" />
    <glyph glyph-name="e" unicode="e" horiz-adv-x="947" 
d="M847 549h-542v-119h520v-138h-520v-140h542v-152h-714v700h714v-151z" />
    <glyph glyph-name="f" unicode="f" horiz-adv-x="917" 
d="M827 549h-522v-159h500v-138h-500v-252h-172v700h694v-151z" />
    <glyph glyph-name="g" unicode="g" horiz-adv-x="949" 
d="M362 416h526v-366q-143 -73 -391 -73q-88 0 -165.5 23t-139 67t-97 116.5t-35.5 165.5q0 92 35 165t95.5 118t138.5 68t168 23q215 0 341 -52v-196q-60 46 -150.5 71t-190.5 25q-124 0 -193 -59t-69 -163q0 -99 69.5 -154.5t192.5 -55.5q138 0 223 25v101h-358v151z" />
    <glyph glyph-name="h" unicode="h" horiz-adv-x="1099" 
d="M794 700h172v-700h-172v284h-489v-284h-172v700h172v-265h489v265z" />
    <glyph glyph-name="i" unicode="i" horiz-adv-x="438" 
d="M133 700h172v-700h-172v700z" />
    <glyph glyph-name="j" unicode="j" horiz-adv-x="772" 
d="M681 338q0 -356 -360 -356q-134 0 -260 60v195q121 -102 260 -102q93 0 140.5 48.5t47.5 154.5v362h172v-362z" />
    <glyph glyph-name="k" unicode="k" horiz-adv-x="918" 
d="M685 0l-237 340l-143 -117v-223h-172v700h172v-286l337 286h244l-307 -253l316 -447h-210z" />
    <glyph glyph-name="l" unicode="l" horiz-adv-x="797" 
d="M305 151h435v-151h-607v700h172v-549z" />
    <glyph glyph-name="m" unicode="m" horiz-adv-x="1290" 
d="M949 700h208v-700h-166v462l-267 -462h-159l-266 461v-461h-166v700h208l304 -527z" />
    <glyph glyph-name="n" unicode="n" horiz-adv-x="1035" 
d="M736 700h166v-700l-193 -2l-410 496v-494h-166v700h218l385 -465v465z" />
    <glyph glyph-name="o" unicode="o" 
d="M503 719q-72 0 -137 -14t-121 -44t-97 -73t-64.5 -104t-23.5 -135q0 -92 35.5 -163.5t97.5 -115.5t141 -66.5t169 -22.5t169 22.5t141 66.5t97.5 115.5t35.5 163.5q0 74 -23.5 135t-64.5 104t-97 73t-121 44t-137 14zM503 134q-124 0 -194 57t-70 158t70 159t194 58
t194 -58t70 -159t-70 -158t-194 -57z" />
    <glyph glyph-name="p" unicode="p" horiz-adv-x="889" 
d="M517 700q161 0 249.5 -55t88.5 -186t-88.5 -186t-249.5 -55h-212v-218h-172v700h384zM517 369q84 0 121.5 21t37.5 69t-37.5 69t-121.5 21h-212v-180h212z" />
    <glyph glyph-name="q" unicode="q" 
d="M946 349q0 -186 -141 -284l91 -120l-123 -90l-111 146q-71 -20 -159 -20q-90 0 -169 22.5t-141 66.5t-97.5 115.5t-35.5 163.5q0 74 23.5 135t64.5 104t97 73t121 44t137 14t137 -14t121 -44t97 -73t64.5 -104t23.5 -135zM503 134q29 0 55 3l-166 219l123 91l189 -250
q63 57 63 152q0 101 -70 159t-194 58t-194 -58t-70 -159t70 -158t194 -57z" />
    <glyph glyph-name="r" unicode="r" horiz-adv-x="971" 
d="M696 0l-223 238h-168v-238h-172v700h384q78 0 137 -11.5t105.5 -37t71 -71.5t24.5 -111q0 -165 -166 -212l242 -257h-235zM305 549v-160h202q93 0 133 18.5t40 61.5t-40 61.5t-133 18.5h-202z" />
    <glyph glyph-name="s" unicode="s" horiz-adv-x="868" 
d="M432 280q114 -5 158 -20t44 -53q0 -80 -202 -80q-220 0 -357 101l1 -190q134 -61 356 -61q78 0 142.5 13t117.5 41t82.5 77.5t29.5 116.5q0 113 -85.5 163.5t-278.5 57.5q-123 4 -168.5 19t-45.5 45q0 34 45.5 48t153.5 14q182 0 325 -89v181q-129 59 -325 59
q-169 0 -269 -53.5t-100 -163.5q0 -115 86.5 -166t289.5 -60z" />
    <glyph glyph-name="t" unicode="t" horiz-adv-x="826" 
d="M801 700v-151h-302v-549h-172v549h-302v151h776z" />
    <glyph glyph-name="u" unicode="u" horiz-adv-x="987" 
d="M722 399v301h172v-301q0 -108 -32 -190t-88.5 -129.5t-126.5 -70.5t-153 -23q-84 0 -154 23t-126.5 70.5t-88.5 129.5t-32 190v301h172v-301q0 -260 229 -260q228 0 228 260z" />
    <glyph glyph-name="v" unicode="v" horiz-adv-x="860" 
d="M688 700h180l-314 -700h-248l-314 700h180l258 -589z" />
    <glyph glyph-name="w" unicode="w" horiz-adv-x="1388" 
d="M1216 700h180l-314 -700h-178l-210 468l-210 -468h-178l-314 700h180l223 -501l223 501h152l223 -501z" />
    <glyph glyph-name="x" unicode="x" horiz-adv-x="906" 
d="M894 0h-225l-219 255l-214 -255h-224l316 365l-287 335h225l200 -226l192 226h223l-293 -335z" />
    <glyph glyph-name="y" unicode="y" horiz-adv-x="879" 
d="M889 700l-365 -439v-261h-172v263l-362 437h223l227 -291l225 291h224z" />
    <glyph glyph-name="z" unicode="z" horiz-adv-x="856" 
d="M338 151h468v-151h-727v138l422 411h-451v151h716v-129z" />
    <glyph glyph-name="braceleft" unicode="{" horiz-adv-x="703" 
d="M339 349q90 23 90 88q0 29 -22.5 78t-22.5 68q0 87 206 63v157q-102 6 -177 -6.5t-115 -39.5t-58.5 -59.5t-18.5 -72.5q0 -42 20 -97t20 -71q0 -35 -42 -35h-137v-146h137q42 0 42 -35q0 -16 -20 -71t-20 -97q0 -40 18.5 -72.5t58.5 -59.5t115 -39.5t177 -6.5v157
q-206 -24 -206 63q0 19 22.5 68t22.5 78q0 65 -90 88z" />
    <glyph glyph-name="bar" unicode="|" horiz-adv-x="558" 
d="M193 800h172v-900h-172v900z" />
    <glyph glyph-name="braceright" unicode="}" horiz-adv-x="703" 
d="M364 349q-90 -23 -90 -88q0 -29 22.5 -78t22.5 -68q0 -87 -206 -63v-157q102 -6 177 6.5t115 39.5t58.5 59.5t18.5 72.5q0 42 -20 97t-20 71q0 35 42 35h137v146h-137q-42 0 -42 35q0 16 20 71t20 97q0 40 -18.5 72.5t-58.5 59.5t-115 39.5t-177 6.5v-157q206 24 206 -63
q0 -19 -22.5 -68t-22.5 -78q0 -65 90 -88z" />
    <glyph glyph-name="asciitilde" unicode="~" horiz-adv-x="944" 
d="M848 281q-75 -38 -164 -38q-72 0 -217 36t-217 36q-85 0 -154 -34v151q69 34 154 34q72 0 217 -36t217 -36q89 0 164 38v-151z" />
    <glyph glyph-name="exclamdown" unicode="&#xa1;" horiz-adv-x="488" 
d="M244 722q45 0 76.5 -32t31.5 -76q0 -45 -31.5 -77t-76.5 -32t-76.5 32t-31.5 77q0 44 31.5 76t76.5 32zM156 2v459h172v-459h-172z" />
    <glyph glyph-name="cent" unicode="&#xa2;" horiz-adv-x="854" 
d="M769 307l-1 -179q-90 -50 -224 -60v-68h-130v68q-100 7 -175 37t-122 92.5t-47 151.5q0 133 93.5 203t250.5 81v67h130v-67q131 -10 224 -60v-176q-89 67 -224 82v-248q147 15 225 76zM245 349q0 -106 169 -119v250q-169 -16 -169 -131z" />
    <glyph glyph-name="sterling" unicode="&#xa3;" horiz-adv-x="910" 
d="M364 151h477v-151h-752v146q85 0 125.5 17.5t40.5 57.5q0 32 -26 77h-146v132h90q-3 18 -3 37q0 124 97 190t247 66q191 0 294 -62v-184q-49 46 -127.5 71t-166.5 25q-89 0 -131 -27t-42 -85q0 -16 3 -31h359v-132h-292q15 -32 15 -60q0 -53 -62 -87z" />
    <glyph glyph-name="yen" unicode="&#xa5;" horiz-adv-x="879" 
d="M879 700l-278 -320h147v-123h-224v-60h224v-123h-224v-74h-172v74h-224v123h224v60h-224v123h149l-277 320h223l217 -273l215 273h224z" />
    <glyph glyph-name="brokenbar" unicode="&#xa6;" horiz-adv-x="558" 
d="M193 411v389h172v-389h-172zM365 289v-389h-172v389h172z" />
    <glyph glyph-name="section" unicode="&#xa7;" horiz-adv-x="880" 
d="M845 282q0 -105 -138 -151q77 -47 77 -138q0 -105 -93 -156t-266 -51q-187 0 -303 35v171q131 -55 303 -55q189 0 189 52q0 27 -39 37t-165 17q-143 8 -224.5 30t-115.5 58.5t-34 95.5q0 105 139 151q-78 46 -78 138q0 105 93 156t266 51q187 0 303 -35v-171
q-131 55 -303 55q-189 0 -189 -52q0 -27 39 -37t165 -17q143 -8 224.5 -30t115.5 -58.5t34 -95.5zM196 252q0 -33 52 -45.5t202 -19.5q235 2 235 70q0 33 -52 45.5t-202 19.5q-235 -2 -235 -70z" />
    <glyph glyph-name="dieresis" unicode="&#xa8;" horiz-adv-x="600" 
d="M102 738q-41 0 -70 28.5t-29 69.5t29 69.5t70 28.5q40 0 69 -29t29 -69t-29 -69t-69 -29zM449 738q-41 0 -70 29t-29 69t29 69t70 29t69.5 -29t28.5 -69t-28.5 -69t-69.5 -29z" />
    <glyph glyph-name="copyright" unicode="&#xa9;" horiz-adv-x="1048" 
d="M524 -23q230 0 352 101t122 272q0 172 -122 272.5t-352 100.5t-352 -100.5t-122 -272.5q0 -171 122 -272t352 -101zM524 643q190 0 286 -83t96 -210t-96 -210t-286 -83t-286 83t-96 210t96 210t286 83zM531 260q-176 0 -176 91q0 48 45.5 73t130.5 25q147 0 243 -57v133
q-93 41 -243 41q-136 0 -221.5 -55t-85.5 -160t86 -159.5t221 -54.5q152 0 243 41l1 135q-84 -53 -244 -53z" />
    <glyph glyph-name="guillemotleft" unicode="&#xab;" horiz-adv-x="843" 
d="M456 536l-140 -200l140 -200h-164l-207 200l207 200h164zM729 536l-140 -200l140 -200h-164l-207 200l207 200h164z" />
    <glyph glyph-name="registered" unicode="&#xae;" horiz-adv-x="764" 
d="M382 723q161 0 247.5 -69t86.5 -183t-86.5 -183.5t-247.5 -69.5t-247.5 69.5t-86.5 183.5t86.5 183t247.5 69zM382 288q128 0 192 50.5t64 131.5t-64 131.5t-192 50.5t-192 -50.5t-64 -131.5t64 -131.5t192 -50.5zM550 507q0 -64 -68 -82l80 -67h-113l-72 61h-48v-61h-86
v237h179q128 0 128 -88zM329 529v-45h95q35 0 35 23q0 22 -35 22h-95z" />
    <glyph glyph-name="macron" unicode="&#xaf;" horiz-adv-x="600" 
d="M478 788h-448v128h448v-128z" />
    <glyph glyph-name="degree" unicode="&#xb0;" horiz-adv-x="666" 
d="M333 295q-125 0 -204 55t-79 159t79 159t204 55t204 -55t79 -159t-79 -159t-204 -55zM333 433q124 0 124 76t-124 76t-124 -76t124 -76z" />
    <glyph glyph-name="plusminus" unicode="&#xb1;" horiz-adv-x="745" 
d="M448 530h201v-147h-201v-115h-151v115h-201v147h201v116h151v-116zM96 26v147h553v-147h-553z" />
    <glyph glyph-name="acute" unicode="&#xb4;" horiz-adv-x="600" 
d="M455 914l-232 -151h-193l201 151h224z" />
    <glyph glyph-name="paragraph" unicode="&#xb6;" horiz-adv-x="1103" 
d="M930 700v-700h-172v549h-91v-549h-172v218h-92q-159 0 -244.5 54.5t-85.5 186.5t85.5 186.5t244.5 54.5h527zM495 369v180h-107q-74 0 -106.5 -21t-32.5 -69t32.5 -69t106.5 -21h107z" />
    <glyph glyph-name="periodcentered" unicode="&#xb7;" horiz-adv-x="496" 
d="M248 256q-47 0 -80.5 33.5t-33.5 80.5t33.5 80.5t80.5 33.5t80.5 -33.5t33.5 -80.5t-33.5 -80.5t-80.5 -33.5z" />
    <glyph glyph-name="cedilla" unicode="&#xb8;" horiz-adv-x="600" 
d="M226 29l-62 -187q39 6 125 5q76 -2 76 -26q0 -27 -76 -27q-99 0 -181 36v-128q80 -25 181 -25q103 0 158.5 38.5t55.5 104.5q0 123 -177 126l30 84z" />
    <glyph glyph-name="guillemotright" unicode="&#xbb;" horiz-adv-x="843" 
d="M278 536l207 -200l-207 -200h-164l140 200l-140 200h164zM551 536l207 -200l-207 -200h-164l140 200l-140 200h164z" />
    <glyph glyph-name="questiondown" unicode="&#xbf;" horiz-adv-x="803" 
d="M457 722q45 0 76.5 -32t31.5 -76q0 -45 -31.5 -77t-76.5 -32t-76.5 32t-31.5 77q0 44 31.5 76t76.5 32zM233 200q0 34 33 49.5t108 26.5l167 25v155h-172v-47l-85 -14q-229 -38 -229 -204q0 -59 28.5 -101t79 -64.5t109 -32.5t129.5 -10q205 0 345 62v186
q-63 -43 -153.5 -69.5t-191.5 -26.5q-88 0 -128 15.5t-40 49.5z" />
    <glyph glyph-name="Agrave" unicode="&#xc0;" horiz-adv-x="940" 
d="M584 763h-193l-232 151h224zM748 0l-70 150h-416l-70 -150h-180l334 700h248l334 -700h-180zM328 292h284l-142 304z" />
    <glyph glyph-name="Aacute" unicode="&#xc1;" horiz-adv-x="940" 
d="M776 914l-232 -151h-193l201 151h224zM748 0l-70 150h-416l-70 -150h-180l334 700h248l334 -700h-180zM328 292h284l-142 304z" />
    <glyph glyph-name="Acircumflex" unicode="&#xc2;" horiz-adv-x="940" 
d="M470 809l-87 -66h-183l171 151h197l171 -151h-183zM748 0l-70 150h-416l-70 -150h-180l334 700h248l334 -700h-180zM328 292h284l-142 304z" />
    <glyph glyph-name="Atilde" unicode="&#xc3;" horiz-adv-x="940" 
d="M403 819q-38 0 -38 -56h-127q0 78 39 127.5t96 49.5q38 0 70.5 -15t55.5 -29.5t38 -14.5q38 0 38 66h127q0 -82 -39 -134.5t-96 -52.5q-38 0 -71 15t-56 29.5t-37 14.5zM748 0l-70 150h-416l-70 -150h-180l334 700h248l334 -700h-180zM328 292h284l-142 304z" />
    <glyph glyph-name="Adieresis" unicode="&#xc4;" horiz-adv-x="940" 
d="M297 738q-41 0 -70 28.5t-29 69.5t29 69.5t70 28.5q40 0 69 -29t29 -69t-29 -69t-69 -29zM644 738q-41 0 -70 29t-29 69t29 69t70 29q40 0 69 -29t29 -69t-29 -69t-69 -29zM748 0l-70 150h-416l-70 -150h-180l334 700h248l334 -700h-180zM328 292h284l-142 304z" />
    <glyph glyph-name="Aring" unicode="&#xc5;" horiz-adv-x="940" 
d="M470 743q-81 0 -134 40.5t-53 105.5t53 106t134 41q80 0 133.5 -40.5t53.5 -105.5t-53 -106t-134 -41zM470 945q-36 0 -58 -15.5t-22 -39.5q0 -25 22 -40.5t58 -15.5q37 0 58.5 15t21.5 40t-22 40.5t-58 15.5zM748 0l-70 150h-416l-70 -150h-180l334 700h248l334 -700
h-180zM328 292h284l-142 304z" />
    <glyph glyph-name="AE" unicode="&#xc6;" horiz-adv-x="1517" 
d="M1417 549h-542v-119h520v-138h-520v-140h542v-152h-714v150h-400l-109 -150h-198l514 700h907v-151zM405 292h298v257h-112z" />
    <glyph glyph-name="Ccedilla" unicode="&#xc7;" horiz-adv-x="883" 
d="M818 49q-108 -61 -275 -71l-12 -32q177 -3 177 -126q0 -66 -55.5 -104.5t-158.5 -38.5q-101 0 -181 25v128q82 -36 181 -36q76 0 76 27q0 24 -76 26q-86 1 -125 -5l46 139q-155 18 -255 112t-100 256q0 122 59.5 208.5t153 126t210.5 39.5q204 0 335 -72v-196
q-130 116 -335 116q-117 0 -182.5 -59.5t-65.5 -162.5q0 -99 66.5 -154.5t181.5 -55.5q101 0 190 27.5t146 81.5z" />
    <glyph glyph-name="Egrave" unicode="&#xc8;" horiz-adv-x="947" 
d="M637 763h-193l-232 151h224zM847 549h-542v-119h520v-138h-520v-140h542v-152h-714v700h714v-151z" />
    <glyph glyph-name="Eacute" unicode="&#xc9;" horiz-adv-x="947" 
d="M829 914l-232 -151h-193l201 151h224zM847 549h-542v-119h520v-138h-520v-140h542v-152h-714v700h714v-151z" />
    <glyph glyph-name="Ecircumflex" unicode="&#xca;" horiz-adv-x="947" 
d="M523 809l-87 -66h-183l171 151h197l171 -151h-183zM847 549h-542v-119h520v-138h-520v-140h542v-152h-714v700h714v-151z" />
    <glyph glyph-name="Edieresis" unicode="&#xcb;" horiz-adv-x="947" 
d="M350 738q-41 0 -70 28.5t-29 69.5t29 69.5t70 28.5q40 0 69 -29t29 -69t-29 -69t-69 -29zM697 738q-41 0 -70 29t-29 69t29 69t70 29t69.5 -29t28.5 -69t-28.5 -69t-69.5 -29zM847 549h-542v-119h520v-138h-520v-140h542v-152h-714v700h714v-151z" />
    <glyph glyph-name="Igrave" unicode="&#xcc;" horiz-adv-x="438" 
d="M-92 914h224l201 -151h-193zM133 700h172v-700h-172v700z" />
    <glyph glyph-name="Iacute" unicode="&#xcd;" horiz-adv-x="438" 
d="M525 914l-232 -151h-193l201 151h224zM133 700h172v-700h-172v700z" />
    <glyph glyph-name="Icircumflex" unicode="&#xce;" horiz-adv-x="438" 
d="M317 894l171 -151h-183l-86 66l-87 -66h-183l171 151h197zM133 0v700h172v-700h-172z" />
    <glyph glyph-name="Idieresis" unicode="&#xcf;" horiz-adv-x="438" 
d="M46 738q-41 0 -70 28.5t-29 69.5t29 69.5t70 28.5q40 0 69 -29t29 -69t-29 -69t-69 -29zM393 738q-41 0 -70 29t-29 69t29 69t70 29t69.5 -29t28.5 -69t-28.5 -69t-69.5 -29zM133 700h172v-700h-172v700z" />
    <glyph glyph-name="Eth" unicode="&#xd0;" horiz-adv-x="1036" 
d="M529 700q447 0 447 -351q0 -349 -447 -349h-376v281h-115v151h115v268h376zM531 151q140 0 203 50t63 148t-63 149t-203 51h-206v-117h230v-151h-230v-130h206z" />
    <glyph glyph-name="Ntilde" unicode="&#xd1;" horiz-adv-x="1035" 
d="M480 819q-38 0 -38 -56h-127q0 78 39 127.5t96 49.5q38 0 70.5 -15t55.5 -29.5t38 -14.5q38 0 38 66h127q0 -82 -39 -134.5t-96 -52.5q-38 0 -71 15t-56 29.5t-37 14.5zM736 700h166v-700l-193 -2l-410 496v-494h-166v700h218l385 -465v465z" />
    <glyph glyph-name="Ograve" unicode="&#xd2;" 
d="M192 914h224l201 -151h-193zM503 719q-72 0 -137 -14t-121 -44t-97 -73t-64.5 -104t-23.5 -135q0 -92 35.5 -163.5t97.5 -115.5t141 -66.5t169 -22.5t169 22.5t141 66.5t97.5 115.5t35.5 163.5q0 74 -23.5 135t-64.5 104t-97 73t-121 44t-137 14zM503 134q-124 0 -194 57
t-70 158t70 159t194 58t194 -58t70 -159t-70 -158t-194 -57z" />
    <glyph glyph-name="Oacute" unicode="&#xd3;" 
d="M809 914l-232 -151h-193l201 151h224zM503 719q-72 0 -137 -14t-121 -44t-97 -73t-64.5 -104t-23.5 -135q0 -92 35.5 -163.5t97.5 -115.5t141 -66.5t169 -22.5t169 22.5t141 66.5t97.5 115.5t35.5 163.5q0 74 -23.5 135t-64.5 104t-97 73t-121 44t-137 14zM503 134
q-124 0 -194 57t-70 158t70 159t194 58t194 -58t70 -159t-70 -158t-194 -57z" />
    <glyph glyph-name="Ocircumflex" unicode="&#xd4;" 
d="M503 809l-87 -66h-183l171 151h197l171 -151h-183zM503 719q72 0 137 -14t121 -44t97 -73t64.5 -104t23.5 -135q0 -92 -35.5 -163.5t-97.5 -115.5t-141 -66.5t-169 -22.5t-169 22.5t-141 66.5t-97.5 115.5t-35.5 163.5q0 74 23.5 135t64.5 104t97 73t121 44t137 14z
M503 134q124 0 194 57t70 158t-70 159t-194 58t-194 -58t-70 -159t70 -158t194 -57z" />
    <glyph glyph-name="Otilde" unicode="&#xd5;" 
d="M398 763q0 56 38 56q14 0 37 -14.5t56 -29.5t71 -15q57 0 96 52.5t39 134.5h-127q0 -66 -38 -66q-15 0 -38 14.5t-55.5 29.5t-70.5 15q-57 0 -96 -49.5t-39 -127.5h127zM503 719q-72 0 -137 -14t-121 -44t-97 -73t-64.5 -104t-23.5 -135q0 -92 35.5 -163.5t97.5 -115.5
t141 -66.5t169 -22.5t169 22.5t141 66.5t97.5 115.5t35.5 163.5q0 74 -23.5 135t-64.5 104t-97 73t-121 44t-137 14zM503 134q-124 0 -194 57t-70 158t70 159t194 58t194 -58t70 -159t-70 -158t-194 -57z" />
    <glyph glyph-name="Odieresis" unicode="&#xd6;" 
d="M330 738q-41 0 -70 28.5t-29 69.5t29 69.5t70 28.5q40 0 69 -29t29 -69t-29 -69t-69 -29zM677 738q-41 0 -70 29t-29 69t29 69t70 29t69.5 -29t28.5 -69t-28.5 -69t-69.5 -29zM503 719q-72 0 -137 -14t-121 -44t-97 -73t-64.5 -104t-23.5 -135q0 -92 35.5 -163.5
t97.5 -115.5t141 -66.5t169 -22.5t169 22.5t141 66.5t97.5 115.5t35.5 163.5q0 74 -23.5 135t-64.5 104t-97 73t-121 44t-137 14zM503 134q-124 0 -194 57t-70 158t70 159t194 58t194 -58t70 -159t-70 -158t-194 -57z" />
    <glyph glyph-name="multiply" unicode="&#xd7;" horiz-adv-x="681" 
d="M588 494l-146 -141l146 -142l-98 -102l-149 145l-150 -145l-98 102l146 142l-146 141l97 103l151 -146l150 146z" />
    <glyph glyph-name="Oslash" unicode="&#xd8;" 
d="M823 621q123 -99 123 -272q0 -92 -35.5 -163.5t-97.5 -115.5t-141 -66.5t-169 -22.5q-111 0 -203 33l-84 -97l-114 98l66 76q-108 97 -108 258q0 74 23.5 135t64.5 104t97 73t121 44t137 14q99 0 184 -27l78 90l113 -98zM239 349q0 -76 41 -128l293 339q-32 6 -70 6
q-124 0 -194 -58t-70 -159zM503 134q124 0 194 57t70 158q0 88 -54 144l-301 -349q39 -10 91 -10z" />
    <glyph glyph-name="Ugrave" unicode="&#xd9;" horiz-adv-x="987" 
d="M183 914h224l201 -151h-193zM722 399v301h172v-301q0 -108 -32 -190t-88.5 -129.5t-126.5 -70.5t-153 -23q-84 0 -154 23t-126.5 70.5t-88.5 129.5t-32 190v301h172v-301q0 -260 229 -260q228 0 228 260z" />
    <glyph glyph-name="Uacute" unicode="&#xda;" horiz-adv-x="987" 
d="M800 914l-232 -151h-193l201 151h224zM722 399v301h172v-301q0 -108 -32 -190t-88.5 -129.5t-126.5 -70.5t-153 -23q-84 0 -154 23t-126.5 70.5t-88.5 129.5t-32 190v301h172v-301q0 -260 229 -260q228 0 228 260z" />
    <glyph glyph-name="Ucircumflex" unicode="&#xdb;" horiz-adv-x="987" 
d="M494 809l-87 -66h-183l171 151h197l171 -151h-183zM722 700h172v-301q0 -108 -32 -190t-88.5 -129.5t-126.5 -70.5t-153 -23q-84 0 -154 23t-126.5 70.5t-88.5 129.5t-32 190v301h172v-301q0 -260 229 -260q228 0 228 260v301z" />
    <glyph glyph-name="Udieresis" unicode="&#xdc;" horiz-adv-x="987" 
d="M321 738q-41 0 -70 28.5t-29 69.5t29 69.5t70 28.5q40 0 69 -29t29 -69t-29 -69t-69 -29zM668 738q-41 0 -70 29t-29 69t29 69t70 29q40 0 69 -29t29 -69t-29 -69t-69 -29zM722 399v301h172v-301q0 -108 -32 -190t-88.5 -129.5t-126.5 -70.5t-153 -23q-84 0 -154 23
t-126.5 70.5t-88.5 129.5t-32 190v301h172v-301q0 -260 229 -260q228 0 228 260z" />
    <glyph glyph-name="Yacute" unicode="&#xdd;" horiz-adv-x="879" 
d="M746 914l-232 -151h-193l201 151h224zM889 700l-365 -439v-261h-172v263l-362 437h223l227 -291l225 291h224z" />
    <glyph glyph-name="Thorn" unicode="&#xde;" horiz-adv-x="897" 
d="M517 600q161 0 249.5 -55t88.5 -186t-88.5 -186t-249.5 -55h-212v-118h-172v700h172v-100h212zM517 269q84 0 121.5 21t37.5 69t-37.5 69t-121.5 21h-212v-180h212z" />
    <glyph glyph-name="germandbls" unicode="&#xdf;" horiz-adv-x="1013" 
d="M682 389q273 -19 273 -194q0 -78 -50 -128.5t-123.5 -70t-168.5 -19.5q-149 0 -234 33l-1 159q105 -47 235 -47q172 0 172 72q0 24 -27 38t-101 21.5t-205 6.5v128l202 175q-62 8 -119 8q-124 0 -183.5 -52t-59.5 -180v-339h-172v339q0 107 32 183.5t91 119t130.5 62
t161.5 19.5q178 0 325 -52v-129z" />
    <glyph glyph-name="agrave" unicode="&#xe0;" horiz-adv-x="940" 
d="M584 763h-193l-232 151h224zM748 0l-70 150h-416l-70 -150h-180l334 700h248l334 -700h-180zM328 292h284l-142 304z" />
    <glyph glyph-name="aacute" unicode="&#xe1;" horiz-adv-x="940" 
d="M776 914l-232 -151h-193l201 151h224zM748 0l-70 150h-416l-70 -150h-180l334 700h248l334 -700h-180zM328 292h284l-142 304z" />
    <glyph glyph-name="acircumflex" unicode="&#xe2;" horiz-adv-x="940" 
d="M470 809l-87 -66h-183l171 151h197l171 -151h-183zM748 0l-70 150h-416l-70 -150h-180l334 700h248l334 -700h-180zM328 292h284l-142 304z" />
    <glyph glyph-name="atilde" unicode="&#xe3;" horiz-adv-x="940" 
d="M403 819q-38 0 -38 -56h-127q0 78 39 127.5t96 49.5q38 0 70.5 -15t55.5 -29.5t38 -14.5q38 0 38 66h127q0 -82 -39 -134.5t-96 -52.5q-38 0 -71 15t-56 29.5t-37 14.5zM748 0l-70 150h-416l-70 -150h-180l334 700h248l334 -700h-180zM328 292h284l-142 304z" />
    <glyph glyph-name="adieresis" unicode="&#xe4;" horiz-adv-x="940" 
d="M297 738q-41 0 -70 28.5t-29 69.5t29 69.5t70 28.5q40 0 69 -29t29 -69t-29 -69t-69 -29zM644 738q-41 0 -70 29t-29 69t29 69t70 29q40 0 69 -29t29 -69t-29 -69t-69 -29zM748 0l-70 150h-416l-70 -150h-180l334 700h248l334 -700h-180zM328 292h284l-142 304z" />
    <glyph glyph-name="aring" unicode="&#xe5;" horiz-adv-x="940" 
d="M470 743q-81 0 -134 40.5t-53 105.5t53 106t134 41q80 0 133.5 -40.5t53.5 -105.5t-53 -106t-134 -41zM470 945q-36 0 -58 -15.5t-22 -39.5q0 -25 22 -40.5t58 -15.5q37 0 58.5 15t21.5 40t-22 40.5t-58 15.5zM748 0l-70 150h-416l-70 -150h-180l334 700h248l334 -700
h-180zM328 292h284l-142 304z" />
    <glyph glyph-name="ae" unicode="&#xe6;" horiz-adv-x="1517" 
d="M1417 549h-542v-119h520v-138h-520v-140h542v-152h-714v150h-400l-109 -150h-198l514 700h907v-151zM405 292h298v257h-112z" />
    <glyph glyph-name="ccedilla" unicode="&#xe7;" horiz-adv-x="883" 
d="M818 49q-108 -61 -275 -71l-12 -32q177 -3 177 -126q0 -66 -55.5 -104.5t-158.5 -38.5q-101 0 -181 25v128q82 -36 181 -36q76 0 76 27q0 24 -76 26q-86 1 -125 -5l46 139q-155 18 -255 112t-100 256q0 122 59.5 208.5t153 126t210.5 39.5q204 0 335 -72v-196
q-130 116 -335 116q-117 0 -182.5 -59.5t-65.5 -162.5q0 -99 66.5 -154.5t181.5 -55.5q101 0 190 27.5t146 81.5z" />
    <glyph glyph-name="egrave" unicode="&#xe8;" horiz-adv-x="947" 
d="M637 763h-193l-232 151h224zM847 549h-542v-119h520v-138h-520v-140h542v-152h-714v700h714v-151z" />
    <glyph glyph-name="eacute" unicode="&#xe9;" horiz-adv-x="947" 
d="M829 914l-232 -151h-193l201 151h224zM847 549h-542v-119h520v-138h-520v-140h542v-152h-714v700h714v-151z" />
    <glyph glyph-name="ecircumflex" unicode="&#xea;" horiz-adv-x="947" 
d="M523 809l-87 -66h-183l171 151h197l171 -151h-183zM847 549h-542v-119h520v-138h-520v-140h542v-152h-714v700h714v-151z" />
    <glyph glyph-name="edieresis" unicode="&#xeb;" horiz-adv-x="947" 
d="M350 738q-41 0 -70 28.5t-29 69.5t29 69.5t70 28.5q40 0 69 -29t29 -69t-29 -69t-69 -29zM697 738q-41 0 -70 29t-29 69t29 69t70 29t69.5 -29t28.5 -69t-28.5 -69t-69.5 -29zM847 549h-542v-119h520v-138h-520v-140h542v-152h-714v700h714v-151z" />
    <glyph glyph-name="igrave" unicode="&#xec;" horiz-adv-x="438" 
d="M-92 914h224l201 -151h-193zM133 700h172v-700h-172v700z" />
    <glyph glyph-name="iacute" unicode="&#xed;" horiz-adv-x="438" 
d="M525 914l-232 -151h-193l201 151h224zM133 700h172v-700h-172v700z" />
    <glyph glyph-name="icircumflex" unicode="&#xee;" horiz-adv-x="438" 
d="M317 894l171 -151h-183l-86 66l-87 -66h-183l171 151h197zM133 0v700h172v-700h-172z" />
    <glyph glyph-name="idieresis" unicode="&#xef;" horiz-adv-x="438" 
d="M46 738q-41 0 -70 28.5t-29 69.5t29 69.5t70 28.5q40 0 69 -29t29 -69t-29 -69t-69 -29zM393 738q-41 0 -70 29t-29 69t29 69t70 29t69.5 -29t28.5 -69t-28.5 -69t-69.5 -29zM133 700h172v-700h-172v700z" />
    <glyph glyph-name="eth" unicode="&#xf0;" horiz-adv-x="1036" 
d="M529 700q447 0 447 -351q0 -349 -447 -349h-376v281h-115v151h115v268h376zM531 151q140 0 203 50t63 148t-63 149t-203 51h-206v-117h230v-151h-230v-130h206z" />
    <glyph glyph-name="ntilde" unicode="&#xf1;" horiz-adv-x="1035" 
d="M480 819q-38 0 -38 -56h-127q0 78 39 127.5t96 49.5q38 0 70.5 -15t55.5 -29.5t38 -14.5q38 0 38 66h127q0 -82 -39 -134.5t-96 -52.5q-38 0 -71 15t-56 29.5t-37 14.5zM736 700h166v-700l-193 -2l-410 496v-494h-166v700h218l385 -465v465z" />
    <glyph glyph-name="ograve" unicode="&#xf2;" 
d="M192 914h224l201 -151h-193zM503 719q-72 0 -137 -14t-121 -44t-97 -73t-64.5 -104t-23.5 -135q0 -92 35.5 -163.5t97.5 -115.5t141 -66.5t169 -22.5t169 22.5t141 66.5t97.5 115.5t35.5 163.5q0 74 -23.5 135t-64.5 104t-97 73t-121 44t-137 14zM503 134q-124 0 -194 57
t-70 158t70 159t194 58t194 -58t70 -159t-70 -158t-194 -57z" />
    <glyph glyph-name="oacute" unicode="&#xf3;" 
d="M809 914l-232 -151h-193l201 151h224zM503 719q-72 0 -137 -14t-121 -44t-97 -73t-64.5 -104t-23.5 -135q0 -92 35.5 -163.5t97.5 -115.5t141 -66.5t169 -22.5t169 22.5t141 66.5t97.5 115.5t35.5 163.5q0 74 -23.5 135t-64.5 104t-97 73t-121 44t-137 14zM503 134
q-124 0 -194 57t-70 158t70 159t194 58t194 -58t70 -159t-70 -158t-194 -57z" />
    <glyph glyph-name="ocircumflex" unicode="&#xf4;" 
d="M503 809l-87 -66h-183l171 151h197l171 -151h-183zM503 719q72 0 137 -14t121 -44t97 -73t64.5 -104t23.5 -135q0 -92 -35.5 -163.5t-97.5 -115.5t-141 -66.5t-169 -22.5t-169 22.5t-141 66.5t-97.5 115.5t-35.5 163.5q0 74 23.5 135t64.5 104t97 73t121 44t137 14z
M503 134q124 0 194 57t70 158t-70 159t-194 58t-194 -58t-70 -159t70 -158t194 -57z" />
    <glyph glyph-name="otilde" unicode="&#xf5;" 
d="M398 763q0 56 38 56q14 0 37 -14.5t56 -29.5t71 -15q57 0 96 52.5t39 134.5h-127q0 -66 -38 -66q-15 0 -38 14.5t-55.5 29.5t-70.5 15q-57 0 -96 -49.5t-39 -127.5h127zM503 719q-72 0 -137 -14t-121 -44t-97 -73t-64.5 -104t-23.5 -135q0 -92 35.5 -163.5t97.5 -115.5
t141 -66.5t169 -22.5t169 22.5t141 66.5t97.5 115.5t35.5 163.5q0 74 -23.5 135t-64.5 104t-97 73t-121 44t-137 14zM503 134q-124 0 -194 57t-70 158t70 159t194 58t194 -58t70 -159t-70 -158t-194 -57z" />
    <glyph glyph-name="odieresis" unicode="&#xf6;" 
d="M330 738q-41 0 -70 28.5t-29 69.5t29 69.5t70 28.5q40 0 69 -29t29 -69t-29 -69t-69 -29zM677 738q-41 0 -70 29t-29 69t29 69t70 29t69.5 -29t28.5 -69t-28.5 -69t-69.5 -29zM503 719q-72 0 -137 -14t-121 -44t-97 -73t-64.5 -104t-23.5 -135q0 -92 35.5 -163.5
t97.5 -115.5t141 -66.5t169 -22.5t169 22.5t141 66.5t97.5 115.5t35.5 163.5q0 74 -23.5 135t-64.5 104t-97 73t-121 44t-137 14zM503 134q-124 0 -194 57t-70 158t70 159t194 58t194 -58t70 -159t-70 -158t-194 -57z" />
    <glyph glyph-name="divide" unicode="&#xf7;" horiz-adv-x="745" 
d="M372 453q-43 0 -73 30t-30 73t30 73.5t73 30.5t73.5 -30.5t30.5 -73.5t-30.5 -73t-73.5 -30zM649 283h-553v147h553v-147zM372 54q-43 0 -73 30t-30 73t30 73.5t73 30.5t73.5 -30.5t30.5 -73.5t-30.5 -73t-73.5 -30z" />
    <glyph glyph-name="oslash" unicode="&#xf8;" 
d="M823 621q123 -99 123 -272q0 -92 -35.5 -163.5t-97.5 -115.5t-141 -66.5t-169 -22.5q-111 0 -203 33l-84 -97l-114 98l66 76q-108 97 -108 258q0 74 23.5 135t64.5 104t97 73t121 44t137 14q99 0 184 -27l78 90l113 -98zM239 349q0 -76 41 -128l293 339q-32 6 -70 6
q-124 0 -194 -58t-70 -159zM503 134q124 0 194 57t70 158q0 88 -54 144l-301 -349q39 -10 91 -10z" />
    <glyph glyph-name="ugrave" unicode="&#xf9;" horiz-adv-x="987" 
d="M183 914h224l201 -151h-193zM722 399v301h172v-301q0 -108 -32 -190t-88.5 -129.5t-126.5 -70.5t-153 -23q-84 0 -154 23t-126.5 70.5t-88.5 129.5t-32 190v301h172v-301q0 -260 229 -260q228 0 228 260z" />
    <glyph glyph-name="uacute" unicode="&#xfa;" horiz-adv-x="987" 
d="M800 914l-232 -151h-193l201 151h224zM722 399v301h172v-301q0 -108 -32 -190t-88.5 -129.5t-126.5 -70.5t-153 -23q-84 0 -154 23t-126.5 70.5t-88.5 129.5t-32 190v301h172v-301q0 -260 229 -260q228 0 228 260z" />
    <glyph glyph-name="ucircumflex" unicode="&#xfb;" horiz-adv-x="987" 
d="M494 809l-87 -66h-183l171 151h197l171 -151h-183zM722 700h172v-301q0 -108 -32 -190t-88.5 -129.5t-126.5 -70.5t-153 -23q-84 0 -154 23t-126.5 70.5t-88.5 129.5t-32 190v301h172v-301q0 -260 229 -260q228 0 228 260v301z" />
    <glyph glyph-name="udieresis" unicode="&#xfc;" horiz-adv-x="987" 
d="M321 738q-41 0 -70 28.5t-29 69.5t29 69.5t70 28.5q40 0 69 -29t29 -69t-29 -69t-69 -29zM668 738q-41 0 -70 29t-29 69t29 69t70 29q40 0 69 -29t29 -69t-29 -69t-69 -29zM722 399v301h172v-301q0 -108 -32 -190t-88.5 -129.5t-126.5 -70.5t-153 -23q-84 0 -154 23
t-126.5 70.5t-88.5 129.5t-32 190v301h172v-301q0 -260 229 -260q228 0 228 260z" />
    <glyph glyph-name="yacute" unicode="&#xfd;" horiz-adv-x="879" 
d="M746 914l-232 -151h-193l201 151h224zM889 700l-365 -439v-261h-172v263l-362 437h223l227 -291l225 291h224z" />
    <glyph glyph-name="thorn" unicode="&#xfe;" horiz-adv-x="897" 
d="M517 600q161 0 249.5 -55t88.5 -186t-88.5 -186t-249.5 -55h-212v-118h-172v700h172v-100h212zM517 269q84 0 121.5 21t37.5 69t-37.5 69t-121.5 21h-212v-180h212z" />
    <glyph glyph-name="ydieresis" unicode="&#xff;" horiz-adv-x="879" 
d="M267 738q-41 0 -70 28.5t-29 69.5t29 69.5t70 28.5q40 0 69 -29t29 -69t-29 -69t-69 -29zM614 738q-41 0 -70 29t-29 69t29 69t70 29q40 0 69 -29t29 -69t-29 -69t-69 -29zM889 700l-365 -439v-261h-172v263l-362 437h223l227 -291l225 291h224z" />
    <glyph glyph-name="Amacron" unicode="&#x100;" horiz-adv-x="940" 
d="M694 916v-128h-448v128h448zM748 0l-70 150h-416l-70 -150h-180l334 700h248l334 -700h-180zM328 292h284l-142 304z" />
    <glyph glyph-name="amacron" unicode="&#x101;" horiz-adv-x="940" 
d="M694 916v-128h-448v128h448zM748 0l-70 150h-416l-70 -150h-180l334 700h248l334 -700h-180zM328 292h284l-142 304z" />
    <glyph glyph-name="Abreve" unicode="&#x102;" horiz-adv-x="940" 
d="M470 743q-93 0 -155 49.5t-62 127.5h147q0 -30 19 -48t51 -18t51 18t19 48h147q0 -78 -62 -127.5t-155 -49.5zM748 0l-70 150h-416l-70 -150h-180l334 700h248l334 -700h-180zM328 292h284l-142 304z" />
    <glyph glyph-name="abreve" unicode="&#x103;" horiz-adv-x="940" 
d="M470 743q-93 0 -155 49.5t-62 127.5h147q0 -30 19 -48t51 -18t51 18t19 48h147q0 -78 -62 -127.5t-155 -49.5zM748 0l-70 150h-416l-70 -150h-180l334 700h248l334 -700h-180zM328 292h284l-142 304z" />
    <glyph glyph-name="Aogonek" unicode="&#x104;" horiz-adv-x="940" 
d="M749 -148q0 -48 58 -48q60 0 120 36v-128q-58 -25 -140 -25q-83 0 -129.5 39t-46.5 108q0 51 34.5 100t92.5 87l-60 129h-416l-70 -150h-180l334 700h248l334 -700q-179 -62 -179 -148zM328 292h284l-142 304z" />
    <glyph glyph-name="aogonek" unicode="&#x105;" horiz-adv-x="940" 
d="M749 -148q0 -48 58 -48q60 0 120 36v-128q-58 -25 -140 -25q-83 0 -129.5 39t-46.5 108q0 51 34.5 100t92.5 87l-60 129h-416l-70 -150h-180l334 700h248l334 -700q-179 -62 -179 -148zM328 292h284l-142 304z" />
    <glyph glyph-name="Cacute" unicode="&#x106;" horiz-adv-x="883" 
d="M806 914l-232 -151h-193l201 151h224zM483 139q-115 0 -181.5 55.5t-66.5 154.5q0 103 65.5 162.5t182.5 59.5q205 0 335 -116v196q-131 72 -335 72q-117 0 -210.5 -39.5t-153 -126t-59.5 -208.5q0 -92 35 -165t94.5 -117t134 -67t159.5 -23q207 0 335 72l1 199
q-57 -54 -146 -81.5t-190 -27.5z" />
    <glyph glyph-name="cacute" unicode="&#x107;" horiz-adv-x="883" 
d="M806 914l-232 -151h-193l201 151h224zM483 139q-115 0 -181.5 55.5t-66.5 154.5q0 103 65.5 162.5t182.5 59.5q205 0 335 -116v196q-131 72 -335 72q-117 0 -210.5 -39.5t-153 -126t-59.5 -208.5q0 -92 35 -165t94.5 -117t134 -67t159.5 -23q207 0 335 72l1 199
q-57 -54 -146 -81.5t-190 -27.5z" />
    <glyph glyph-name="Ccircumflex" unicode="&#x108;" horiz-adv-x="883" 
d="M500 809l-87 -66h-183l171 151h197l171 -151h-183zM483 139q101 0 190 27.5t146 81.5l-1 -199q-128 -72 -335 -72q-85 0 -159.5 23t-134 67t-94.5 117t-35 165q0 122 59.5 208.5t153 126t210.5 39.5q204 0 335 -72v-196q-130 116 -335 116q-117 0 -182.5 -59.5
t-65.5 -162.5q0 -99 66.5 -154.5t181.5 -55.5z" />
    <glyph glyph-name="ccircumflex" unicode="&#x109;" horiz-adv-x="883" 
d="M500 809l-87 -66h-183l171 151h197l171 -151h-183zM483 139q101 0 190 27.5t146 81.5l-1 -199q-128 -72 -335 -72q-85 0 -159.5 23t-134 67t-94.5 117t-35 165q0 122 59.5 208.5t153 126t210.5 39.5q204 0 335 -72v-196q-130 116 -335 116q-117 0 -182.5 -59.5
t-65.5 -162.5q0 -99 66.5 -154.5t181.5 -55.5z" />
    <glyph glyph-name="Cdotaccent" unicode="&#x10a;" horiz-adv-x="883" 
d="M500 738q-41 0 -70 29t-29 69t29 69t70 29q40 0 69 -29t29 -69t-29 -69t-69 -29zM483 139q-115 0 -181.5 55.5t-66.5 154.5q0 103 65.5 162.5t182.5 59.5q205 0 335 -116v196q-131 72 -335 72q-117 0 -210.5 -39.5t-153 -126t-59.5 -208.5q0 -92 35 -165t94.5 -117
t134 -67t159.5 -23q207 0 335 72l1 199q-57 -54 -146 -81.5t-190 -27.5z" />
    <glyph glyph-name="cdotaccent" unicode="&#x10b;" horiz-adv-x="883" 
d="M500 738q-41 0 -70 29t-29 69t29 69t70 29q40 0 69 -29t29 -69t-29 -69t-69 -29zM483 139q-115 0 -181.5 55.5t-66.5 154.5q0 103 65.5 162.5t182.5 59.5q205 0 335 -116v196q-131 72 -335 72q-117 0 -210.5 -39.5t-153 -126t-59.5 -208.5q0 -92 35 -165t94.5 -117
t134 -67t159.5 -23q207 0 335 72l1 199q-57 -54 -146 -81.5t-190 -27.5z" />
    <glyph glyph-name="Ccaron" unicode="&#x10c;" horiz-adv-x="883" 
d="M598 743h-197l-171 151h183l87 -66l86 66h183zM483 139q101 0 190 27.5t146 81.5l-1 -199q-128 -72 -335 -72q-85 0 -159.5 23t-134 67t-94.5 117t-35 165q0 122 59.5 208.5t153 126t210.5 39.5q204 0 335 -72v-196q-130 116 -335 116q-117 0 -182.5 -59.5t-65.5 -162.5
q0 -99 66.5 -154.5t181.5 -55.5z" />
    <glyph glyph-name="ccaron" unicode="&#x10d;" horiz-adv-x="883" 
d="M598 743h-197l-171 151h183l87 -66l86 66h183zM483 139q101 0 190 27.5t146 81.5l-1 -199q-128 -72 -335 -72q-85 0 -159.5 23t-134 67t-94.5 117t-35 165q0 122 59.5 208.5t153 126t210.5 39.5q204 0 335 -72v-196q-130 116 -335 116q-117 0 -182.5 -59.5t-65.5 -162.5
q0 -99 66.5 -154.5t181.5 -55.5z" />
    <glyph glyph-name="Dcaron" unicode="&#x10e;" horiz-adv-x="1016" 
d="M606 743h-197l-171 151h183l87 -66l86 66h183zM509 700q447 0 447 -351q0 -349 -447 -349h-376v700h376zM511 151q140 0 203 50t63 148t-63 149t-203 51h-206v-398h206z" />
    <glyph glyph-name="dcaron" unicode="&#x10f;" horiz-adv-x="1016" 
d="M606 743h-197l-171 151h183l87 -66l86 66h183zM509 700q447 0 447 -351q0 -349 -447 -349h-376v700h376zM511 151q140 0 203 50t63 148t-63 149t-203 51h-206v-398h206z" />
    <glyph glyph-name="Dcroat" unicode="&#x110;" horiz-adv-x="1036" 
d="M529 700q447 0 447 -351q0 -349 -447 -349h-376v281h-115v151h115v268h376zM531 151q140 0 203 50t63 148t-63 149t-203 51h-206v-117h230v-151h-230v-130h206z" />
    <glyph glyph-name="dcroat" unicode="&#x111;" horiz-adv-x="1036" 
d="M529 700q447 0 447 -351q0 -349 -447 -349h-376v281h-115v151h115v268h376zM531 151q140 0 203 50t63 148t-63 149t-203 51h-206v-117h230v-151h-230v-130h206z" />
    <glyph glyph-name="Emacron" unicode="&#x112;" horiz-adv-x="947" 
d="M747 916v-128h-448v128h448zM847 549h-542v-119h520v-138h-520v-140h542v-152h-714v700h714v-151z" />
    <glyph glyph-name="emacron" unicode="&#x113;" horiz-adv-x="947" 
d="M747 916v-128h-448v128h448zM847 549h-542v-119h520v-138h-520v-140h542v-152h-714v700h714v-151z" />
    <glyph glyph-name="Ebreve" unicode="&#x114;" horiz-adv-x="947" 
d="M523 743q-93 0 -155 49.5t-62 127.5h147q0 -30 19 -48t51 -18t51 18t19 48h147q0 -78 -62 -127.5t-155 -49.5zM847 549h-542v-119h520v-138h-520v-140h542v-152h-714v700h714v-151z" />
    <glyph glyph-name="ebreve" unicode="&#x115;" horiz-adv-x="947" 
d="M523 743q-93 0 -155 49.5t-62 127.5h147q0 -30 19 -48t51 -18t51 18t19 48h147q0 -78 -62 -127.5t-155 -49.5zM847 549h-542v-119h520v-138h-520v-140h542v-152h-714v700h714v-151z" />
    <glyph glyph-name="Edotaccent" unicode="&#x116;" horiz-adv-x="947" 
d="M523 738q-41 0 -70 29t-29 69t29 69t70 29t69.5 -29t28.5 -69t-28.5 -69t-69.5 -29zM847 549h-542v-119h520v-138h-520v-140h542v-152h-714v700h714v-151z" />
    <glyph glyph-name="edotaccent" unicode="&#x117;" horiz-adv-x="947" 
d="M523 738q-41 0 -70 29t-29 69t29 69t70 29t69.5 -29t28.5 -69t-28.5 -69t-69.5 -29zM847 549h-542v-119h520v-138h-520v-140h542v-152h-714v700h714v-151z" />
    <glyph glyph-name="Eogonek" unicode="&#x118;" horiz-adv-x="947" 
d="M847 549h-542v-119h520v-138h-520v-140h542v-152q-179 -62 -179 -148q0 -48 58 -48q60 0 120 36v-128q-58 -25 -140 -25q-83 0 -129.5 39t-46.5 108q0 88 98 166h-495v700h714v-151z" />
    <glyph glyph-name="eogonek" unicode="&#x119;" horiz-adv-x="947" 
d="M847 549h-542v-119h520v-138h-520v-140h542v-152q-179 -62 -179 -148q0 -48 58 -48q60 0 120 36v-128q-58 -25 -140 -25q-83 0 -129.5 39t-46.5 108q0 88 98 166h-495v700h714v-151z" />
    <glyph glyph-name="Ecaron" unicode="&#x11a;" horiz-adv-x="947" 
d="M621 743h-197l-171 151h183l87 -66l86 66h183zM847 549h-542v-119h520v-138h-520v-140h542v-152h-714v700h714v-151z" />
    <glyph glyph-name="ecaron" unicode="&#x11b;" horiz-adv-x="947" 
d="M621 743h-197l-171 151h183l87 -66l86 66h183zM847 549h-542v-119h520v-138h-520v-140h542v-152h-714v700h714v-151z" />
    <glyph glyph-name="Gcircumflex" unicode="&#x11c;" horiz-adv-x="949" 
d="M505 809l-87 -66h-183l171 151h197l171 -151h-183zM362 416h526v-366q-143 -73 -391 -73q-88 0 -165.5 23t-139 67t-97 116.5t-35.5 165.5q0 92 35 165t95.5 118t138.5 68t168 23q215 0 341 -52v-196q-60 46 -150.5 71t-190.5 25q-124 0 -193 -59t-69 -163
q0 -99 69.5 -154.5t192.5 -55.5q138 0 223 25v101h-358v151z" />
    <glyph glyph-name="gcircumflex" unicode="&#x11d;" horiz-adv-x="949" 
d="M505 809l-87 -66h-183l171 151h197l171 -151h-183zM362 416h526v-366q-143 -73 -391 -73q-88 0 -165.5 23t-139 67t-97 116.5t-35.5 165.5q0 92 35 165t95.5 118t138.5 68t168 23q215 0 341 -52v-196q-60 46 -150.5 71t-190.5 25q-124 0 -193 -59t-69 -163
q0 -99 69.5 -154.5t192.5 -55.5q138 0 223 25v101h-358v151z" />
    <glyph glyph-name="Gbreve" unicode="&#x11e;" horiz-adv-x="949" 
d="M505 743q-93 0 -155 49.5t-62 127.5h147q0 -30 19 -48t51 -18t51 18t19 48h147q0 -78 -62 -127.5t-155 -49.5zM362 416h526v-366q-143 -73 -391 -73q-88 0 -165.5 23t-139 67t-97 116.5t-35.5 165.5q0 92 35 165t95.5 118t138.5 68t168 23q215 0 341 -52v-196
q-60 46 -150.5 71t-190.5 25q-124 0 -193 -59t-69 -163q0 -99 69.5 -154.5t192.5 -55.5q138 0 223 25v101h-358v151z" />
    <glyph glyph-name="gbreve" unicode="&#x11f;" horiz-adv-x="949" 
d="M505 743q-93 0 -155 49.5t-62 127.5h147q0 -30 19 -48t51 -18t51 18t19 48h147q0 -78 -62 -127.5t-155 -49.5zM362 416h526v-366q-143 -73 -391 -73q-88 0 -165.5 23t-139 67t-97 116.5t-35.5 165.5q0 92 35 165t95.5 118t138.5 68t168 23q215 0 341 -52v-196
q-60 46 -150.5 71t-190.5 25q-124 0 -193 -59t-69 -163q0 -99 69.5 -154.5t192.5 -55.5q138 0 223 25v101h-358v151z" />
    <glyph glyph-name="Gdotaccent" unicode="&#x120;" horiz-adv-x="949" 
d="M505 738q-41 0 -70 29t-29 69t29 69t70 29t69.5 -29t28.5 -69t-28.5 -69t-69.5 -29zM362 416h526v-366q-143 -73 -391 -73q-88 0 -165.5 23t-139 67t-97 116.5t-35.5 165.5q0 92 35 165t95.5 118t138.5 68t168 23q215 0 341 -52v-196q-60 46 -150.5 71t-190.5 25
q-124 0 -193 -59t-69 -163q0 -99 69.5 -154.5t192.5 -55.5q138 0 223 25v101h-358v151z" />
    <glyph glyph-name="gdotaccent" unicode="&#x121;" horiz-adv-x="949" 
d="M505 738q-41 0 -70 29t-29 69t29 69t70 29t69.5 -29t28.5 -69t-28.5 -69t-69.5 -29zM362 416h526v-366q-143 -73 -391 -73q-88 0 -165.5 23t-139 67t-97 116.5t-35.5 165.5q0 92 35 165t95.5 118t138.5 68t168 23q215 0 341 -52v-196q-60 46 -150.5 71t-190.5 25
q-124 0 -193 -59t-69 -163q0 -99 69.5 -154.5t192.5 -55.5q138 0 223 25v101h-358v151z" />
    <glyph glyph-name="uni0122" unicode="&#x122;" horiz-adv-x="949" 
d="M362 416h526v-366q-143 -73 -391 -73q-88 0 -165.5 23t-139 67t-97 116.5t-35.5 165.5q0 92 35 165t95.5 118t138.5 68t168 23q215 0 341 -52v-196q-60 46 -150.5 71t-190.5 25q-124 0 -193 -59t-69 -163q0 -99 69.5 -154.5t192.5 -55.5q138 0 223 25v101h-358v151z
M386 -284l29 216h204l-98 -216h-135z" />
    <glyph glyph-name="uni0123" unicode="&#x123;" horiz-adv-x="949" 
d="M362 416h526v-366q-143 -73 -391 -73q-88 0 -165.5 23t-139 67t-97 116.5t-35.5 165.5q0 92 35 165t95.5 118t138.5 68t168 23q215 0 341 -52v-196q-60 46 -150.5 71t-190.5 25q-124 0 -193 -59t-69 -163q0 -99 69.5 -154.5t192.5 -55.5q138 0 223 25v101h-358v151z
M386 -284l29 216h204l-98 -216h-135z" />
    <glyph glyph-name="Hcircumflex" unicode="&#x124;" horiz-adv-x="1099" 
d="M550 809l-87 -66h-183l171 151h197l171 -151h-183zM794 700h172v-700h-172v284h-489v-284h-172v700h172v-265h489v265z" />
    <glyph glyph-name="hcircumflex" unicode="&#x125;" horiz-adv-x="1099" 
d="M550 809l-87 -66h-183l171 151h197l171 -151h-183zM794 700h172v-700h-172v284h-489v-284h-172v700h172v-265h489v265z" />
    <glyph glyph-name="Hbar" unicode="&#x126;" horiz-adv-x="1099" 
d="M1038 602v-151h-72v-451h-172v198h-489v-198h-172v451h-72v151h72v98h172v-98h489v98h172v-98h72zM794 349v102h-489v-102h489z" />
    <glyph glyph-name="hbar" unicode="&#x127;" horiz-adv-x="1099" 
d="M1038 602v-151h-72v-451h-172v198h-489v-198h-172v451h-72v151h72v98h172v-98h489v98h172v-98h72zM794 349v102h-489v-102h489z" />
    <glyph glyph-name="Itilde" unicode="&#x128;" horiz-adv-x="438" 
d="M114 763q0 56 38 56q14 0 37 -14.5t56 -29.5t71 -15q57 0 96 52.5t39 134.5h-127q0 -66 -38 -66q-15 0 -38 14.5t-55.5 29.5t-70.5 15q-57 0 -96 -49.5t-39 -127.5h127zM133 700h172v-700h-172v700z" />
    <glyph glyph-name="itilde" unicode="&#x129;" horiz-adv-x="438" 
d="M114 763q0 56 38 56q14 0 37 -14.5t56 -29.5t71 -15q57 0 96 52.5t39 134.5h-127q0 -66 -38 -66q-15 0 -38 14.5t-55.5 29.5t-70.5 15q-57 0 -96 -49.5t-39 -127.5h127zM133 700h172v-700h-172v700z" />
    <glyph glyph-name="Imacron" unicode="&#x12a;" horiz-adv-x="438" 
d="M443 788h-448v128h448v-128zM133 700h172v-700h-172v700z" />
    <glyph glyph-name="imacron" unicode="&#x12b;" horiz-adv-x="438" 
d="M443 788h-448v128h448v-128zM133 700h172v-700h-172v700z" />
    <glyph glyph-name="Ibreve" unicode="&#x12c;" horiz-adv-x="438" 
d="M219 743q-93 0 -155 49.5t-62 127.5h147q0 -30 19 -48t51 -18t51 18t19 48h147q0 -78 -62 -127.5t-155 -49.5zM133 700h172v-700h-172v700z" />
    <glyph glyph-name="ibreve" unicode="&#x12d;" horiz-adv-x="438" 
d="M219 743q-93 0 -155 49.5t-62 127.5h147q0 -30 19 -48t51 -18t51 18t19 48h147q0 -78 -62 -127.5t-155 -49.5zM133 700h172v-700h-172v700z" />
    <glyph glyph-name="Iogonek" unicode="&#x12e;" horiz-adv-x="438" 
d="M305 0q-179 -62 -179 -148q0 -48 58 -48q60 0 120 36v-128q-58 -25 -140 -25q-83 0 -129.5 39t-46.5 108q0 54 40 106.5t105 92.5v667h172v-700z" />
    <glyph glyph-name="iogonek" unicode="&#x12f;" horiz-adv-x="438" 
d="M219 738q-41 0 -70 29t-29 69t29 69t70 29t69.5 -29t28.5 -69t-28.5 -69t-69.5 -29zM133 33v667h172v-700q-179 -62 -179 -148q0 -48 58 -48q60 0 120 36v-128q-58 -25 -140 -25q-83 0 -129.5 39t-46.5 108q0 54 40 106.5t105 92.5z" />
    <glyph glyph-name="Idotaccent" unicode="&#x130;" horiz-adv-x="438" 
d="M219 738q-41 0 -70 29t-29 69t29 69t70 29t69.5 -29t28.5 -69t-28.5 -69t-69.5 -29zM133 700h172v-700h-172v700z" />
    <glyph glyph-name="dotlessi" unicode="&#x131;" horiz-adv-x="438" 
d="M133 700h172v-700h-172v700z" />
    <glyph glyph-name="Jcircumflex" unicode="&#x134;" horiz-adv-x="772" 
d="M593 809l-87 -66h-183l171 151h197l171 -151h-183zM509 338v362h172v-362q0 -356 -360 -356q-134 0 -260 60v195q121 -102 260 -102q93 0 140.5 48.5t47.5 154.5z" />
    <glyph glyph-name="jcircumflex" unicode="&#x135;" horiz-adv-x="772" 
d="M593 809l-87 -66h-183l171 151h197l171 -151h-183zM509 338v362h172v-362q0 -356 -360 -356q-134 0 -260 60v195q121 -102 260 -102q93 0 140.5 48.5t47.5 154.5z" />
    <glyph glyph-name="uni0136" unicode="&#x136;" horiz-adv-x="918" 
d="M579 447l316 -447h-210l-237 340l-143 -117v-223h-172v700h172v-286l337 286h244zM358 -284l29 216h204l-98 -216h-135z" />
    <glyph glyph-name="uni0137" unicode="&#x137;" horiz-adv-x="918" 
d="M579 447l316 -447h-210l-237 340l-143 -117v-223h-172v700h172v-286l337 286h244zM358 -284l29 216h204l-98 -216h-135z" />
    <glyph glyph-name="Lacute" unicode="&#x139;" horiz-adv-x="797" 
d="M519 914l-232 -151h-193l201 151h224zM305 151h435v-151h-607v700h172v-549z" />
    <glyph glyph-name="lacute" unicode="&#x13a;" horiz-adv-x="797" 
d="M519 914l-232 -151h-193l201 151h224zM305 151h435v-151h-607v700h172v-549z" />
    <glyph glyph-name="uni013B" unicode="&#x13b;" horiz-adv-x="797" 
d="M305 151h435v-151h-607v700h172v-549zM321 -284l29 216h204l-98 -216h-135z" />
    <glyph glyph-name="uni013C" unicode="&#x13c;" horiz-adv-x="797" 
d="M305 151h435v-151h-607v700h172v-549zM321 -284l29 216h204l-98 -216h-135z" />
    <glyph glyph-name="Lcaron" unicode="&#x13d;" horiz-adv-x="797" 
d="M482 894l-171 -151h-197l-171 151h183l87 -66l86 66h183zM305 151h435v-151h-607v700h172v-549z" />
    <glyph glyph-name="lcaron" unicode="&#x13e;" horiz-adv-x="797" 
d="M482 894l-171 -151h-197l-171 151h183l87 -66l86 66h183zM305 151h435v-151h-607v700h172v-549z" />
    <glyph glyph-name="Ldot" unicode="&#x13f;" horiz-adv-x="797" 
d="M305 151h435v-151h-607v700h172v-549zM617 317q-47 0 -80.5 33.5t-33.5 80.5t33.5 80.5t80.5 33.5t80.5 -33.5t33.5 -80.5t-33.5 -80.5t-80.5 -33.5z" />
    <glyph glyph-name="ldot" unicode="&#x140;" horiz-adv-x="797" 
d="M305 151h435v-151h-607v700h172v-549zM617 317q-47 0 -80.5 33.5t-33.5 80.5t33.5 80.5t80.5 33.5t80.5 -33.5t33.5 -80.5t-33.5 -80.5t-80.5 -33.5z" />
    <glyph glyph-name="Lslash" unicode="&#x141;" horiz-adv-x="807" 
d="M305 151h435v-151h-607v306l-131 -30v151l131 30v243h172v-204l192 43v-151l-192 -43v-194z" />
    <glyph glyph-name="lslash" unicode="&#x142;" horiz-adv-x="807" 
d="M305 151h435v-151h-607v306l-131 -30v151l131 30v243h172v-204l192 43v-151l-192 -43v-194z" />
    <glyph glyph-name="Nacute" unicode="&#x143;" horiz-adv-x="1035" 
d="M853 914l-232 -151h-193l201 151h224zM736 700h166v-700l-193 -2l-410 496v-494h-166v700h218l385 -465v465z" />
    <glyph glyph-name="nacute" unicode="&#x144;" horiz-adv-x="1035" 
d="M853 914l-232 -151h-193l201 151h224zM736 700h166v-700l-193 -2l-410 496v-494h-166v700h218l385 -465v465z" />
    <glyph glyph-name="uni0145" unicode="&#x145;" horiz-adv-x="1035" 
d="M736 700h166v-700l-193 -2l-410 496v-494h-166v700h218l385 -465v465zM389 -284l29 216h204l-98 -216h-135z" />
    <glyph glyph-name="uni0146" unicode="&#x146;" horiz-adv-x="1035" 
d="M736 700h166v-700l-193 -2l-410 496v-494h-166v700h218l385 -465v465zM389 -284l29 216h204l-98 -216h-135z" />
    <glyph glyph-name="Ncaron" unicode="&#x147;" horiz-adv-x="1035" 
d="M645 743h-197l-171 151h183l87 -66l86 66h183zM736 700h166v-700l-193 -2l-410 496v-494h-166v700h218l385 -465v465z" />
    <glyph glyph-name="ncaron" unicode="&#x148;" horiz-adv-x="1035" 
d="M645 743h-197l-171 151h183l87 -66l86 66h183zM736 700h166v-700l-193 -2l-410 496v-494h-166v700h218l385 -465v465z" />
    <glyph glyph-name="Eng" unicode="&#x14a;" horiz-adv-x="1035" 
d="M736 700h166v-564q0 -81 -19 -144t-49.5 -101.5t-74 -63t-88.5 -34t-96 -9.5q-102 0 -182 33v189q76 -74 182 -74q96 0 135 64l-411 498v-494h-166v700h218l384 -465z" />
    <glyph glyph-name="eng" unicode="&#x14b;" horiz-adv-x="1035" 
d="M736 700h166v-564q0 -81 -19 -144t-49.5 -101.5t-74 -63t-88.5 -34t-96 -9.5q-102 0 -182 33v189q76 -74 182 -74q96 0 135 64l-411 498v-494h-166v700h218l384 -465z" />
    <glyph glyph-name="Omacron" unicode="&#x14c;" 
d="M727 788h-448v128h448v-128zM503 719q-72 0 -137 -14t-121 -44t-97 -73t-64.5 -104t-23.5 -135q0 -92 35.5 -163.5t97.5 -115.5t141 -66.5t169 -22.5t169 22.5t141 66.5t97.5 115.5t35.5 163.5q0 74 -23.5 135t-64.5 104t-97 73t-121 44t-137 14zM503 134q-124 0 -194 57
t-70 158t70 159t194 58t194 -58t70 -159t-70 -158t-194 -57z" />
    <glyph glyph-name="omacron" unicode="&#x14d;" 
d="M727 788h-448v128h448v-128zM503 719q-72 0 -137 -14t-121 -44t-97 -73t-64.5 -104t-23.5 -135q0 -92 35.5 -163.5t97.5 -115.5t141 -66.5t169 -22.5t169 22.5t141 66.5t97.5 115.5t35.5 163.5q0 74 -23.5 135t-64.5 104t-97 73t-121 44t-137 14zM503 134q-124 0 -194 57
t-70 158t70 159t194 58t194 -58t70 -159t-70 -158t-194 -57z" />
    <glyph glyph-name="Obreve" unicode="&#x14e;" 
d="M503 743q-93 0 -155 49.5t-62 127.5h147q0 -30 19 -48t51 -18t51 18t19 48h147q0 -78 -62 -127.5t-155 -49.5zM503 719q-72 0 -137 -14t-121 -44t-97 -73t-64.5 -104t-23.5 -135q0 -92 35.5 -163.5t97.5 -115.5t141 -66.5t169 -22.5t169 22.5t141 66.5t97.5 115.5
t35.5 163.5q0 74 -23.5 135t-64.5 104t-97 73t-121 44t-137 14zM503 134q-124 0 -194 57t-70 158t70 159t194 58t194 -58t70 -159t-70 -158t-194 -57z" />
    <glyph glyph-name="obreve" unicode="&#x14f;" 
d="M503 743q-93 0 -155 49.5t-62 127.5h147q0 -30 19 -48t51 -18t51 18t19 48h147q0 -78 -62 -127.5t-155 -49.5zM503 719q-72 0 -137 -14t-121 -44t-97 -73t-64.5 -104t-23.5 -135q0 -92 35.5 -163.5t97.5 -115.5t141 -66.5t169 -22.5t169 22.5t141 66.5t97.5 115.5
t35.5 163.5q0 74 -23.5 135t-64.5 104t-97 73t-121 44t-137 14zM503 134q-124 0 -194 57t-70 158t70 159t194 58t194 -58t70 -159t-70 -158t-194 -57z" />
    <glyph glyph-name="Ohungarumlaut" unicode="&#x150;" 
d="M621 894l-169 -151h-156l138 151h187zM870 894l-189 -151h-156l158 151h187zM503 719q-72 0 -137 -14t-121 -44t-97 -73t-64.5 -104t-23.5 -135q0 -92 35.5 -163.5t97.5 -115.5t141 -66.5t169 -22.5t169 22.5t141 66.5t97.5 115.5t35.5 163.5q0 74 -23.5 135t-64.5 104
t-97 73t-121 44t-137 14zM503 134q-124 0 -194 57t-70 158t70 159t194 58t194 -58t70 -159t-70 -158t-194 -57z" />
    <glyph glyph-name="ohungarumlaut" unicode="&#x151;" 
d="M621 894l-169 -151h-156l138 151h187zM870 894l-189 -151h-156l158 151h187zM503 719q-72 0 -137 -14t-121 -44t-97 -73t-64.5 -104t-23.5 -135q0 -92 35.5 -163.5t97.5 -115.5t141 -66.5t169 -22.5t169 22.5t141 66.5t97.5 115.5t35.5 163.5q0 74 -23.5 135t-64.5 104
t-97 73t-121 44t-137 14zM503 134q-124 0 -194 57t-70 158t70 159t194 58t194 -58t70 -159t-70 -158t-194 -57z" />
    <glyph glyph-name="OE" unicode="&#x152;" horiz-adv-x="1459" 
d="M1359 549h-512v-119h490v-138h-490v-140h512v-152h-846q-202 0 -327.5 88.5t-125.5 260.5t125.5 261.5t327.5 89.5h846v-151zM675 152v397h-188q-124 0 -186 -52.5t-62 -147.5q0 -94 68.5 -145.5t205.5 -51.5h162z" />
    <glyph glyph-name="oe" unicode="&#x153;" horiz-adv-x="1459" 
d="M1359 549h-512v-119h490v-138h-490v-140h512v-152h-846q-202 0 -327.5 88.5t-125.5 260.5t125.5 261.5t327.5 89.5h846v-151zM675 152v397h-188q-124 0 -186 -52.5t-62 -147.5q0 -94 68.5 -145.5t205.5 -51.5h162z" />
    <glyph glyph-name="Racute" unicode="&#x154;" horiz-adv-x="971" 
d="M792 914l-232 -151h-193l201 151h224zM696 0l-223 238h-168v-238h-172v700h384q78 0 137 -11.5t105.5 -37t71 -71.5t24.5 -111q0 -165 -166 -212l242 -257h-235zM305 549v-160h202q93 0 133 18.5t40 61.5t-40 61.5t-133 18.5h-202z" />
    <glyph glyph-name="racute" unicode="&#x155;" horiz-adv-x="971" 
d="M792 914l-232 -151h-193l201 151h224zM696 0l-223 238h-168v-238h-172v700h384q78 0 137 -11.5t105.5 -37t71 -71.5t24.5 -111q0 -165 -166 -212l242 -257h-235zM305 549v-160h202q93 0 133 18.5t40 61.5t-40 61.5t-133 18.5h-202z" />
    <glyph glyph-name="uni0156" unicode="&#x156;" horiz-adv-x="971" 
d="M689 257l242 -257h-235l-223 238h-168v-238h-172v700h384q78 0 137 -11.5t105.5 -37t71 -71.5t24.5 -111q0 -165 -166 -212zM305 549v-160h202q93 0 133 18.5t40 61.5t-40 61.5t-133 18.5h-202zM357 -284l29 216h204l-98 -216h-135z" />
    <glyph glyph-name="uni0157" unicode="&#x157;" horiz-adv-x="971" 
d="M689 257l242 -257h-235l-223 238h-168v-238h-172v700h384q78 0 137 -11.5t105.5 -37t71 -71.5t24.5 -111q0 -165 -166 -212zM305 549v-160h202q93 0 133 18.5t40 61.5t-40 61.5t-133 18.5h-202zM357 -284l29 216h204l-98 -216h-135z" />
    <glyph glyph-name="Rcaron" unicode="&#x158;" horiz-adv-x="971" 
d="M584 743h-197l-171 151h183l87 -66l86 66h183zM696 0l-223 238h-168v-238h-172v700h384q78 0 137 -11.5t105.5 -37t71 -71.5t24.5 -111q0 -165 -166 -212l242 -257h-235zM305 549v-160h202q93 0 133 18.5t40 61.5t-40 61.5t-133 18.5h-202z" />
    <glyph glyph-name="rcaron" unicode="&#x159;" horiz-adv-x="971" 
d="M584 743h-197l-171 151h183l87 -66l86 66h183zM696 0l-223 238h-168v-238h-172v700h384q78 0 137 -11.5t105.5 -37t71 -71.5t24.5 -111q0 -165 -166 -212l242 -257h-235zM305 549v-160h202q93 0 133 18.5t40 61.5t-40 61.5t-133 18.5h-202z" />
    <glyph glyph-name="Sacute" unicode="&#x15a;" horiz-adv-x="868" 
d="M740 914l-232 -151h-193l201 151h224zM432 280q114 -5 158 -20t44 -53q0 -80 -202 -80q-220 0 -357 101l1 -190q134 -61 356 -61q78 0 142.5 13t117.5 41t82.5 77.5t29.5 116.5q0 113 -85.5 163.5t-278.5 57.5q-123 4 -168.5 19t-45.5 45q0 34 45.5 48t153.5 14
q182 0 325 -89v181q-129 59 -325 59q-169 0 -269 -53.5t-100 -163.5q0 -115 86.5 -166t289.5 -60z" />
    <glyph glyph-name="sacute" unicode="&#x15b;" horiz-adv-x="868" 
d="M740 914l-232 -151h-193l201 151h224zM432 280q114 -5 158 -20t44 -53q0 -80 -202 -80q-220 0 -357 101l1 -190q134 -61 356 -61q78 0 142.5 13t117.5 41t82.5 77.5t29.5 116.5q0 113 -85.5 163.5t-278.5 57.5q-123 4 -168.5 19t-45.5 45q0 34 45.5 48t153.5 14
q182 0 325 -89v181q-129 59 -325 59q-169 0 -269 -53.5t-100 -163.5q0 -115 86.5 -166t289.5 -60z" />
    <glyph glyph-name="Scircumflex" unicode="&#x15c;" horiz-adv-x="868" 
d="M434 809l-87 -66h-183l171 151h197l171 -151h-183zM440 446q193 -7 278.5 -57.5t85.5 -163.5q0 -67 -29.5 -116.5t-82.5 -77.5t-117.5 -41t-142.5 -13q-222 0 -356 61l-1 190q137 -101 357 -101q202 0 202 80q0 38 -44 53t-158 20q-203 9 -289.5 60t-86.5 166
q0 110 100 163.5t269 53.5q196 0 325 -59v-181q-143 89 -325 89q-108 0 -153.5 -14t-45.5 -48q0 -30 45.5 -45t168.5 -19z" />
    <glyph glyph-name="scircumflex" unicode="&#x15d;" horiz-adv-x="868" 
d="M434 809l-87 -66h-183l171 151h197l171 -151h-183zM440 446q193 -7 278.5 -57.5t85.5 -163.5q0 -67 -29.5 -116.5t-82.5 -77.5t-117.5 -41t-142.5 -13q-222 0 -356 61l-1 190q137 -101 357 -101q202 0 202 80q0 38 -44 53t-158 20q-203 9 -289.5 60t-86.5 166
q0 110 100 163.5t269 53.5q196 0 325 -59v-181q-143 89 -325 89q-108 0 -153.5 -14t-45.5 -48q0 -30 45.5 -45t168.5 -19z" />
    <glyph glyph-name="Scedilla" unicode="&#x15e;" horiz-adv-x="868" 
d="M804 225q0 -116 -85 -175.5t-225 -70.5l-12 -33q177 -3 177 -126q0 -66 -55.5 -104.5t-158.5 -38.5q-101 0 -181 25v128q82 -36 181 -36q76 0 76 27q0 24 -76 26q-86 1 -125 -5l45 136q-179 9 -289 60l-1 190q137 -101 357 -101q202 0 202 80q0 38 -44 53t-158 20
q-203 9 -289.5 60t-86.5 166q0 110 100 163.5t269 53.5q196 0 325 -59v-181q-143 89 -325 89q-108 0 -153.5 -14t-45.5 -48q0 -30 45.5 -45t168.5 -19q193 -7 278.5 -57.5t85.5 -163.5z" />
    <glyph glyph-name="scedilla" unicode="&#x15f;" horiz-adv-x="868" 
d="M804 225q0 -116 -85 -175.5t-225 -70.5l-12 -33q177 -3 177 -126q0 -66 -55.5 -104.5t-158.5 -38.5q-101 0 -181 25v128q82 -36 181 -36q76 0 76 27q0 24 -76 26q-86 1 -125 -5l45 136q-179 9 -289 60l-1 190q137 -101 357 -101q202 0 202 80q0 38 -44 53t-158 20
q-203 9 -289.5 60t-86.5 166q0 110 100 163.5t269 53.5q196 0 325 -59v-181q-143 89 -325 89q-108 0 -153.5 -14t-45.5 -48q0 -30 45.5 -45t168.5 -19q193 -7 278.5 -57.5t85.5 -163.5z" />
    <glyph glyph-name="Scaron" unicode="&#x160;" horiz-adv-x="868" 
d="M532 743h-197l-171 151h183l87 -66l86 66h183zM440 446q193 -7 278.5 -57.5t85.5 -163.5q0 -67 -29.5 -116.5t-82.5 -77.5t-117.5 -41t-142.5 -13q-222 0 -356 61l-1 190q137 -101 357 -101q202 0 202 80q0 38 -44 53t-158 20q-203 9 -289.5 60t-86.5 166
q0 110 100 163.5t269 53.5q196 0 325 -59v-181q-143 89 -325 89q-108 0 -153.5 -14t-45.5 -48q0 -30 45.5 -45t168.5 -19z" />
    <glyph glyph-name="scaron" unicode="&#x161;" horiz-adv-x="868" 
d="M532 743h-197l-171 151h183l87 -66l86 66h183zM440 446q193 -7 278.5 -57.5t85.5 -163.5q0 -67 -29.5 -116.5t-82.5 -77.5t-117.5 -41t-142.5 -13q-222 0 -356 61l-1 190q137 -101 357 -101q202 0 202 80q0 38 -44 53t-158 20q-203 9 -289.5 60t-86.5 166
q0 110 100 163.5t269 53.5q196 0 325 -59v-181q-143 89 -325 89q-108 0 -153.5 -14t-45.5 -48q0 -30 45.5 -45t168.5 -19z" />
    <glyph glyph-name="uni0162" unicode="&#x162;" horiz-adv-x="826" 
d="M499 0h-19l-19 -54q177 -3 177 -126q0 -66 -55.5 -104.5t-158.5 -38.5q-101 0 -181 25v128q82 -36 181 -36q76 0 76 27q0 24 -76 26q-86 1 -125 -5l52 158h-24v549h-302v151h776v-151h-302v-549z" />
    <glyph glyph-name="uni0163" unicode="&#x163;" horiz-adv-x="826" 
d="M499 0h-19l-19 -54q177 -3 177 -126q0 -66 -55.5 -104.5t-158.5 -38.5q-101 0 -181 25v128q82 -36 181 -36q76 0 76 27q0 24 -76 26q-86 1 -125 -5l52 158h-24v549h-302v151h776v-151h-302v-549z" />
    <glyph glyph-name="Tcaron" unicode="&#x164;" horiz-adv-x="826" 
d="M511 743h-197l-171 151h183l87 -66l86 66h183zM801 700v-151h-302v-549h-172v549h-302v151h776z" />
    <glyph glyph-name="tcaron" unicode="&#x165;" horiz-adv-x="826" 
d="M511 743h-197l-171 151h183l87 -66l86 66h183zM801 700v-151h-302v-549h-172v549h-302v151h776z" />
    <glyph glyph-name="Tbar" unicode="&#x166;" horiz-adv-x="826" 
d="M801 549h-302v-192h191v-151h-191v-206h-172v206h-191v151h191v192h-302v151h776v-151z" />
    <glyph glyph-name="tbar" unicode="&#x167;" horiz-adv-x="826" 
d="M801 549h-302v-192h191v-151h-191v-206h-172v206h-191v151h191v192h-302v151h776v-151z" />
    <glyph glyph-name="Utilde" unicode="&#x168;" horiz-adv-x="987" 
d="M389 763q0 56 38 56q14 0 37 -14.5t55.5 -29.5t71.5 -15q57 0 96 52.5t39 134.5h-127q0 -66 -38 -66q-15 0 -38 14.5t-55.5 29.5t-70.5 15q-57 0 -96 -49.5t-39 -127.5h127zM722 399v301h172v-301q0 -108 -32 -190t-88.5 -129.5t-126.5 -70.5t-153 -23q-84 0 -154 23
t-126.5 70.5t-88.5 129.5t-32 190v301h172v-301q0 -260 229 -260q228 0 228 260z" />
    <glyph glyph-name="utilde" unicode="&#x169;" horiz-adv-x="987" 
d="M389 763q0 56 38 56q14 0 37 -14.5t55.5 -29.5t71.5 -15q57 0 96 52.5t39 134.5h-127q0 -66 -38 -66q-15 0 -38 14.5t-55.5 29.5t-70.5 15q-57 0 -96 -49.5t-39 -127.5h127zM722 399v301h172v-301q0 -108 -32 -190t-88.5 -129.5t-126.5 -70.5t-153 -23q-84 0 -154 23
t-126.5 70.5t-88.5 129.5t-32 190v301h172v-301q0 -260 229 -260q228 0 228 260z" />
    <glyph glyph-name="Umacron" unicode="&#x16a;" horiz-adv-x="987" 
d="M718 788h-448v128h448v-128zM722 399v301h172v-301q0 -108 -32 -190t-88.5 -129.5t-126.5 -70.5t-153 -23q-84 0 -154 23t-126.5 70.5t-88.5 129.5t-32 190v301h172v-301q0 -260 229 -260q228 0 228 260z" />
    <glyph glyph-name="umacron" unicode="&#x16b;" horiz-adv-x="987" 
d="M718 788h-448v128h448v-128zM722 399v301h172v-301q0 -108 -32 -190t-88.5 -129.5t-126.5 -70.5t-153 -23q-84 0 -154 23t-126.5 70.5t-88.5 129.5t-32 190v301h172v-301q0 -260 229 -260q228 0 228 260z" />
    <glyph glyph-name="Ubreve" unicode="&#x16c;" horiz-adv-x="987" 
d="M494 743q-93 0 -155 49.5t-62 127.5h147q0 -30 19 -48t51 -18t51 18t19 48h147q0 -78 -62 -127.5t-155 -49.5zM722 399v301h172v-301q0 -108 -32 -190t-88.5 -129.5t-126.5 -70.5t-153 -23q-84 0 -154 23t-126.5 70.5t-88.5 129.5t-32 190v301h172v-301q0 -260 229 -260
q228 0 228 260z" />
    <glyph glyph-name="ubreve" unicode="&#x16d;" horiz-adv-x="987" 
d="M494 743q-93 0 -155 49.5t-62 127.5h147q0 -30 19 -48t51 -18t51 18t19 48h147q0 -78 -62 -127.5t-155 -49.5zM722 399v301h172v-301q0 -108 -32 -190t-88.5 -129.5t-126.5 -70.5t-153 -23q-84 0 -154 23t-126.5 70.5t-88.5 129.5t-32 190v301h172v-301q0 -260 229 -260
q228 0 228 260z" />
    <glyph glyph-name="Uring" unicode="&#x16e;" horiz-adv-x="987" 
d="M681 890q0 -65 -53 -106t-134 -41t-134 40.5t-53 105.5t53 106t134 41q80 0 133.5 -40.5t53.5 -105.5zM414 890q0 -25 22 -40.5t58 -15.5q37 0 58.5 15t21.5 40t-22 40.5t-58 15.5t-58 -15.5t-22 -39.5zM722 399v301h172v-301q0 -108 -32 -190t-88.5 -129.5t-126.5 -70.5
t-153 -23q-84 0 -154 23t-126.5 70.5t-88.5 129.5t-32 190v301h172v-301q0 -260 229 -260q228 0 228 260z" />
    <glyph glyph-name="uring" unicode="&#x16f;" horiz-adv-x="987" 
d="M681 890q0 -65 -53 -106t-134 -41t-134 40.5t-53 105.5t53 106t134 41q80 0 133.5 -40.5t53.5 -105.5zM414 890q0 -25 22 -40.5t58 -15.5q37 0 58.5 15t21.5 40t-22 40.5t-58 15.5t-58 -15.5t-22 -39.5zM722 399v301h172v-301q0 -108 -32 -190t-88.5 -129.5t-126.5 -70.5
t-153 -23q-84 0 -154 23t-126.5 70.5t-88.5 129.5t-32 190v301h172v-301q0 -260 229 -260q228 0 228 260z" />
    <glyph glyph-name="Uhungarumlaut" unicode="&#x170;" horiz-adv-x="987" 
d="M612 894l-169 -151h-156l138 151h187zM861 894l-189 -151h-156l158 151h187zM722 399v301h172v-301q0 -108 -32 -190t-88.5 -129.5t-126.5 -70.5t-153 -23q-84 0 -154 23t-126.5 70.5t-88.5 129.5t-32 190v301h172v-301q0 -260 229 -260q228 0 228 260z" />
    <glyph glyph-name="uhungarumlaut" unicode="&#x171;" horiz-adv-x="987" 
d="M612 894l-169 -151h-156l138 151h187zM861 894l-189 -151h-156l158 151h187zM722 399v301h172v-301q0 -108 -32 -190t-88.5 -129.5t-126.5 -70.5t-153 -23q-84 0 -154 23t-126.5 70.5t-88.5 129.5t-32 190v301h172v-301q0 -260 229 -260q228 0 228 260z" />
    <glyph glyph-name="Uogonek" unicode="&#x172;" horiz-adv-x="987" 
d="M722 700h172v-301q0 -166 -71.5 -263.5t-192.5 -131.5q-161 -60 -161 -142q0 -48 58 -48q60 0 120 36v-128q-58 -25 -140 -25q-83 0 -129.5 39t-46.5 108q0 78 78 148q-143 23 -229.5 123.5t-86.5 283.5v301h172v-301q0 -260 229 -260q228 0 228 260v301z" />
    <glyph glyph-name="uogonek" unicode="&#x173;" horiz-adv-x="987" 
d="M722 700h172v-301q0 -166 -71.5 -263.5t-192.5 -131.5q-161 -60 -161 -142q0 -48 58 -48q60 0 120 36v-128q-58 -25 -140 -25q-83 0 -129.5 39t-46.5 108q0 78 78 148q-143 23 -229.5 123.5t-86.5 283.5v301h172v-301q0 -260 229 -260q228 0 228 260v301z" />
    <glyph glyph-name="Wcircumflex" unicode="&#x174;" horiz-adv-x="1388" 
d="M694 809l-87 -66h-183l171 151h197l171 -151h-183zM1216 700h180l-314 -700h-178l-210 468l-210 -468h-178l-314 700h180l223 -501l223 501h152l223 -501z" />
    <glyph glyph-name="wcircumflex" unicode="&#x175;" horiz-adv-x="1388" 
d="M694 809l-87 -66h-183l171 151h197l171 -151h-183zM1216 700h180l-314 -700h-178l-210 468l-210 -468h-178l-314 700h180l223 -501l223 501h152l223 -501z" />
    <glyph glyph-name="Ycircumflex" unicode="&#x176;" horiz-adv-x="879" 
d="M440 809l-87 -66h-183l171 151h197l171 -151h-183zM889 700l-365 -439v-261h-172v263l-362 437h223l227 -291l225 291h224z" />
    <glyph glyph-name="ycircumflex" unicode="&#x177;" horiz-adv-x="879" 
d="M440 809l-87 -66h-183l171 151h197l171 -151h-183zM889 700l-365 -439v-261h-172v263l-362 437h223l227 -291l225 291h224z" />
    <glyph glyph-name="Ydieresis" unicode="&#x178;" horiz-adv-x="879" 
d="M267 738q-41 0 -70 28.5t-29 69.5t29 69.5t70 28.5q40 0 69 -29t29 -69t-29 -69t-69 -29zM614 738q-41 0 -70 29t-29 69t29 69t70 29q40 0 69 -29t29 -69t-29 -69t-69 -29zM889 700l-365 -439v-261h-172v263l-362 437h223l227 -291l225 291h224z" />
    <glyph glyph-name="Zacute" unicode="&#x179;" horiz-adv-x="856" 
d="M734 914l-232 -151h-193l201 151h224zM338 151h468v-151h-727v138l422 411h-451v151h716v-129z" />
    <glyph glyph-name="zacute" unicode="&#x17a;" horiz-adv-x="856" 
d="M734 914l-232 -151h-193l201 151h224zM338 151h468v-151h-727v138l422 411h-451v151h716v-129z" />
    <glyph glyph-name="Zdotaccent" unicode="&#x17b;" horiz-adv-x="856" 
d="M428 738q-41 0 -70 29t-29 69t29 69t70 29q40 0 69 -29t29 -69t-29 -69t-69 -29zM338 151h468v-151h-727v138l422 411h-451v151h716v-129z" />
    <glyph glyph-name="zdotaccent" unicode="&#x17c;" horiz-adv-x="856" 
d="M428 738q-41 0 -70 29t-29 69t29 69t70 29q40 0 69 -29t29 -69t-29 -69t-69 -29zM338 151h468v-151h-727v138l422 411h-451v151h716v-129z" />
    <glyph glyph-name="Zcaron" unicode="&#x17d;" horiz-adv-x="856" 
d="M526 743h-197l-171 151h183l87 -66l86 66h183zM338 151h468v-151h-727v138l422 411h-451v151h716v-129z" />
    <glyph glyph-name="zcaron" unicode="&#x17e;" horiz-adv-x="856" 
d="M526 743h-197l-171 151h183l87 -66l86 66h183zM338 151h468v-151h-727v138l422 411h-451v151h716v-129z" />
    <glyph glyph-name="Aringacute" unicode="&#x1fa;" horiz-adv-x="940" 
d="M776 1260l-232 -151h-193l201 151h224zM470 743q-81 0 -134 40.5t-53 105.5t53 106t134 41q80 0 133.5 -40.5t53.5 -105.5t-53 -106t-134 -41zM470 945q-36 0 -58 -15.5t-22 -39.5q0 -25 22 -40.5t58 -15.5q37 0 58.5 15t21.5 40t-22 40.5t-58 15.5zM748 0l-70 150h-416
l-70 -150h-180l334 700h248l334 -700h-180zM328 292h284l-142 304z" />
    <glyph glyph-name="aringacute" unicode="&#x1fb;" horiz-adv-x="940" 
d="M776 1260l-232 -151h-193l201 151h224zM470 743q-81 0 -134 40.5t-53 105.5t53 106t134 41q80 0 133.5 -40.5t53.5 -105.5t-53 -106t-134 -41zM470 945q-36 0 -58 -15.5t-22 -39.5q0 -25 22 -40.5t58 -15.5q37 0 58.5 15t21.5 40t-22 40.5t-58 15.5zM748 0l-70 150h-416
l-70 -150h-180l334 700h248l334 -700h-180zM328 292h284l-142 304z" />
    <glyph glyph-name="AEacute" unicode="&#x1fc;" horiz-adv-x="1517" 
d="M1310 914l-232 -151h-193l201 151h224zM1417 549h-542v-119h520v-138h-520v-140h542v-152h-714v150h-400l-109 -150h-198l514 700h907v-151zM405 292h298v257h-112z" />
    <glyph glyph-name="aeacute" unicode="&#x1fd;" horiz-adv-x="1517" 
d="M1310 914l-232 -151h-193l201 151h224zM1417 549h-542v-119h520v-138h-520v-140h542v-152h-714v150h-400l-109 -150h-198l514 700h907v-151zM405 292h298v257h-112z" />
    <glyph glyph-name="Oslashacute" unicode="&#x1fe;" 
d="M809 914l-232 -151h-193l201 151h224zM823 621q123 -99 123 -272q0 -92 -35.5 -163.5t-97.5 -115.5t-141 -66.5t-169 -22.5q-111 0 -203 33l-84 -97l-114 98l66 76q-108 97 -108 258q0 74 23.5 135t64.5 104t97 73t121 44t137 14q99 0 184 -27l78 90l113 -98zM239 349
q0 -76 41 -128l293 339q-32 6 -70 6q-124 0 -194 -58t-70 -159zM503 134q124 0 194 57t70 158q0 88 -54 144l-301 -349q39 -10 91 -10z" />
    <glyph glyph-name="oslashacute" unicode="&#x1ff;" 
d="M809 914l-232 -151h-193l201 151h224zM823 621q123 -99 123 -272q0 -92 -35.5 -163.5t-97.5 -115.5t-141 -66.5t-169 -22.5q-111 0 -203 33l-84 -97l-114 98l66 76q-108 97 -108 258q0 74 23.5 135t64.5 104t97 73t121 44t137 14q99 0 184 -27l78 90l113 -98zM239 349
q0 -76 41 -128l293 339q-32 6 -70 6q-124 0 -194 -58t-70 -159zM503 134q124 0 194 57t70 158q0 88 -54 144l-301 -349q39 -10 91 -10z" />
    <glyph glyph-name="uni0218" unicode="&#x218;" horiz-adv-x="868" 
d="M432 280q114 -5 158 -20t44 -53q0 -80 -202 -80q-220 0 -357 101l1 -190q134 -61 356 -61q78 0 142.5 13t117.5 41t82.5 77.5t29.5 116.5q0 113 -85.5 163.5t-278.5 57.5q-123 4 -168.5 19t-45.5 45q0 34 45.5 48t153.5 14q182 0 325 -89v181q-129 59 -325 59
q-169 0 -269 -53.5t-100 -163.5q0 -115 86.5 -166t289.5 -60zM334 -68h204l-98 -216h-135z" />
    <glyph glyph-name="uni0219" unicode="&#x219;" horiz-adv-x="868" 
d="M432 280q114 -5 158 -20t44 -53q0 -80 -202 -80q-220 0 -357 101l1 -190q134 -61 356 -61q78 0 142.5 13t117.5 41t82.5 77.5t29.5 116.5q0 113 -85.5 163.5t-278.5 57.5q-123 4 -168.5 19t-45.5 45q0 34 45.5 48t153.5 14q182 0 325 -89v181q-129 59 -325 59
q-169 0 -269 -53.5t-100 -163.5q0 -115 86.5 -166t289.5 -60zM334 -68h204l-98 -216h-135z" />
    <glyph glyph-name="uni021A" unicode="&#x21a;" horiz-adv-x="826" 
d="M25 700h776v-151h-302v-549h-172v549h-302v151zM284 -284l29 216h204l-98 -216h-135z" />
    <glyph glyph-name="uni021B" unicode="&#x21b;" horiz-adv-x="826" 
d="M25 700h776v-151h-302v-549h-172v549h-302v151zM284 -284l29 216h204l-98 -216h-135z" />
    <glyph glyph-name="circumflex" unicode="&#x2c6;" horiz-adv-x="600" 
d="M579 743h-183l-86 66l-87 -66h-183l171 151h197z" />
    <glyph glyph-name="caron" unicode="&#x2c7;" horiz-adv-x="600" 
d="M396 894h183l-171 -151h-197l-171 151h183l87 -66z" />
    <glyph glyph-name="breve" unicode="&#x2d8;" horiz-adv-x="600" 
d="M257 743q-93 0 -155 49.5t-62 127.5h147q0 -30 19 -48t51 -18t51 18t19 48h147q0 -78 -62 -127.5t-155 -49.5z" />
    <glyph glyph-name="dotaccent" unicode="&#x2d9;" horiz-adv-x="600" 
d="M129 738q-41 0 -70 29t-29 69t29 69t70 29t69.5 -29t28.5 -69t-28.5 -69t-69.5 -29z" />
    <glyph glyph-name="ring" unicode="&#x2da;" horiz-adv-x="600" 
d="M404 890q0 -65 -53 -106t-134 -41t-134 40.5t-53 105.5t53 106t134 41q80 0 133.5 -40.5t53.5 -105.5zM137 890q0 -25 22 -40.5t58 -15.5q37 0 58.5 15t21.5 40t-22 40.5t-58 15.5t-58 -15.5t-22 -39.5z" />
    <glyph glyph-name="ogonek" unicode="&#x2db;" horiz-adv-x="600" 
d="M495 0q-179 -62 -179 -148q0 -48 58 -48q60 0 120 36v-128q-58 -25 -140 -25q-83 0 -129.5 39t-46.5 108q0 78 77.5 148.5t184.5 100.5z" />
    <glyph glyph-name="tilde" unicode="&#x2dc;" horiz-adv-x="600" 
d="M157 763q0 56 38 56q14 0 37 -14.5t55.5 -29.5t71.5 -15q57 0 96 52.5t39 134.5h-127q0 -66 -38 -66q-15 0 -38 14.5t-55.5 29.5t-70.5 15q-57 0 -96 -49.5t-39 -127.5h127z" />
    <glyph glyph-name="hungarumlaut" unicode="&#x2dd;" horiz-adv-x="600" 
d="M355 894l-169 -151h-156l138 151h187zM604 894l-189 -151h-156l158 151h187z" />
    <glyph glyph-name="gravecomb" unicode="&#x300;" horiz-adv-x="0" 
d="M-537 914h224l201 -151h-193z" />
    <glyph glyph-name="acutecomb" unicode="&#x301;" horiz-adv-x="0" 
d="M2 914l-232 -151h-193l201 151h224z" />
    <glyph glyph-name="uni0302" unicode="&#x302;" horiz-adv-x="0" 
d="M-40 743h-183l-86 66l-87 -66h-183l171 151h197z" />
    <glyph glyph-name="tildecomb" unicode="&#x303;" horiz-adv-x="0" 
d="M-367 763q0 56 38 56q14 0 37 -14.5t55.5 -29.5t71.5 -15q57 0 96 52.5t39 134.5h-127q0 -66 -38 -66q-15 0 -38 14.5t-55.5 29.5t-70.5 15q-57 0 -96 -49.5t-39 -127.5h127z" />
    <glyph glyph-name="uni0304" unicode="&#x304;" horiz-adv-x="0" 
d="M-30 788h-448v128h448v-128z" />
    <glyph glyph-name="uni0306" unicode="&#x306;" horiz-adv-x="0" 
d="M-257 743q-93 0 -155 49.5t-62 127.5h147q0 -30 19 -48t51 -18t51 18t19 48h147q0 -78 -62 -127.5t-155 -49.5z" />
    <glyph glyph-name="uni0307" unicode="&#x307;" horiz-adv-x="0" 
d="M-128 738q-41 0 -70 29t-29 69t29 69t70 29q40 0 69 -29t29 -69t-29 -69t-69 -29z" />
    <glyph glyph-name="uni0308" unicode="&#x308;" horiz-adv-x="0" 
d="M-448 738q-41 0 -70 28.5t-29 69.5t29 69.5t70 28.5q40 0 69 -29t29 -69t-29 -69t-69 -29zM-101 738q-41 0 -70 29t-29 69t29 69t70 29t69.5 -29t28.5 -69t-28.5 -69t-69.5 -29z" />
    <glyph glyph-name="uni030A" unicode="&#x30a;" horiz-adv-x="0" 
d="M-30 890q0 -65 -53 -106t-134 -41t-134 40.5t-53 105.5t53 106t134 41q80 0 133.5 -40.5t53.5 -105.5zM-297 890q0 -25 22 -40.5t58 -15.5q37 0 58.5 15t21.5 40t-22 40.5t-58 15.5t-58 -15.5t-22 -39.5z" />
    <glyph glyph-name="uni030B" unicode="&#x30b;" horiz-adv-x="0" 
d="M-259 894l-169 -151h-156l138 151h187zM-10 894l-189 -151h-156l158 151h187z" />
    <glyph glyph-name="uni030C" unicode="&#x30c;" horiz-adv-x="0" 
d="M-223 894h183l-171 -151h-197l-171 151h183l87 -66z" />
    <glyph glyph-name="uni0326" unicode="&#x326;" horiz-adv-x="0" 
d="M-280 -68h204l-98 -216h-135z" />
    <glyph glyph-name="uni0327" unicode="&#x327;" horiz-adv-x="0" 
d="M-374 29l-62 -187q39 6 125 5q76 -2 76 -26q0 -27 -76 -27q-99 0 -181 36v-128q80 -25 181 -25q103 0 158.5 38.5t55.5 104.5q0 123 -177 126l30 84z" />
    <glyph glyph-name="uni0328" unicode="&#x328;" horiz-adv-x="0" 
d="M-105 0q-179 -62 -179 -148q0 -48 58 -48q60 0 120 36v-128q-58 -25 -140 -25q-83 0 -129.5 39t-46.5 108q0 78 77.5 148.5t184.5 100.5z" />
    <glyph glyph-name="Wgrave" unicode="&#x1e80;" horiz-adv-x="1388" 
d="M808 763h-193l-232 151h224zM1216 700h180l-314 -700h-178l-210 468l-210 -468h-178l-314 700h180l223 -501l223 501h152l223 -501z" />
    <glyph glyph-name="wgrave" unicode="&#x1e81;" horiz-adv-x="1388" 
d="M808 763h-193l-232 151h224zM1216 700h180l-314 -700h-178l-210 468l-210 -468h-178l-314 700h180l223 -501l223 501h152l223 -501z" />
    <glyph glyph-name="Wacute" unicode="&#x1e82;" horiz-adv-x="1388" 
d="M1000 914l-232 -151h-193l201 151h224zM1216 700h180l-314 -700h-178l-210 468l-210 -468h-178l-314 700h180l223 -501l223 501h152l223 -501z" />
    <glyph glyph-name="wacute" unicode="&#x1e83;" horiz-adv-x="1388" 
d="M1000 914l-232 -151h-193l201 151h224zM1216 700h180l-314 -700h-178l-210 468l-210 -468h-178l-314 700h180l223 -501l223 501h152l223 -501z" />
    <glyph glyph-name="Wdieresis" unicode="&#x1e84;" horiz-adv-x="1388" 
d="M521 738q-41 0 -70 28.5t-29 69.5t29 69.5t70 28.5q40 0 69 -29t29 -69t-29 -69t-69 -29zM868 738q-41 0 -70 29t-29 69t29 69t70 29q40 0 69 -29t29 -69t-29 -69t-69 -29zM1216 700h180l-314 -700h-178l-210 468l-210 -468h-178l-314 700h180l223 -501l223 501h152
l223 -501z" />
    <glyph glyph-name="wdieresis" unicode="&#x1e85;" horiz-adv-x="1388" 
d="M521 738q-41 0 -70 28.5t-29 69.5t29 69.5t70 28.5q40 0 69 -29t29 -69t-29 -69t-69 -29zM868 738q-41 0 -70 29t-29 69t29 69t70 29q40 0 69 -29t29 -69t-29 -69t-69 -29zM1216 700h180l-314 -700h-178l-210 468l-210 -468h-178l-314 700h180l223 -501l223 501h152
l223 -501z" />
    <glyph glyph-name="uni1E9E" unicode="&#x1e9e;" horiz-adv-x="1013" 
d="M682 389q273 -19 273 -194q0 -78 -50 -128.5t-123.5 -70t-168.5 -19.5q-149 0 -234 33l-1 159q105 -47 235 -47q172 0 172 72q0 24 -27 38t-101 21.5t-205 6.5v128l202 175q-62 8 -119 8q-124 0 -183.5 -52t-59.5 -180v-339h-172v339q0 107 32 183.5t91 119t130.5 62
t161.5 19.5q178 0 325 -52v-129z" />
    <glyph glyph-name="Ygrave" unicode="&#x1ef2;" horiz-adv-x="879" 
d="M554 763h-193l-232 151h224zM889 700l-365 -439v-261h-172v263l-362 437h223l227 -291l225 291h224z" />
    <glyph glyph-name="ygrave" unicode="&#x1ef3;" horiz-adv-x="879" 
d="M554 763h-193l-232 151h224zM889 700l-365 -439v-261h-172v263l-362 437h223l227 -291l225 291h224z" />
    <glyph glyph-name="endash" unicode="&#x2013;" horiz-adv-x="944" 
d="M848 281h-752v151h752v-151z" />
    <glyph glyph-name="emdash" unicode="&#x2014;" horiz-adv-x="1288" 
d="M1192 281h-1096v151h1096v-151z" />
    <glyph glyph-name="quoteleft" unicode="&#x2018;" horiz-adv-x="348" 
d="M244 423h-194l94 277h125z" />
    <glyph glyph-name="quoteright" unicode="&#x2019;" horiz-adv-x="348" 
d="M104 700h194l-94 -277h-125z" />
    <glyph glyph-name="quotesinglbase" unicode="&#x201a;" horiz-adv-x="348" 
d="M104 77h194l-94 -277h-125z" />
    <glyph glyph-name="quotedblleft" unicode="&#x201c;" horiz-adv-x="588" 
d="M244 423h-194l94 277h125zM484 423h-194l94 277h125z" />
    <glyph glyph-name="quotedblright" unicode="&#x201d;" horiz-adv-x="588" 
d="M104 700h194l-94 -277h-125zM344 700h194l-94 -277h-125z" />
    <glyph glyph-name="quotedblbase" unicode="&#x201e;" horiz-adv-x="588" 
d="M104 78h194l-94 -277h-125zM344 78h194l-94 -277h-125z" />
    <glyph glyph-name="dagger" unicode="&#x2020;" horiz-adv-x="645" 
d="M576 562v-147h-174v-278h-159v278h-174v147h174v138h159v-138h174z" />
    <glyph glyph-name="daggerdbl" unicode="&#x2021;" horiz-adv-x="645" 
d="M576 465h-174v-93h174v-147h-174v-88h-159v88h-174v147h174v93h-174v147h174v88h159v-88h174v-147z" />
    <glyph glyph-name="bullet" unicode="&#x2022;" horiz-adv-x="557" 
d="M278 240q-56 0 -96 40t-40 96q0 57 40 97t96 40q57 0 97 -40t40 -97q0 -56 -40 -96t-97 -40z" />
    <glyph glyph-name="ellipsis" unicode="&#x2026;" horiz-adv-x="1137" 
d="M228 -7q-47 0 -80.5 33.5t-33.5 80.5t33.5 80.5t80.5 33.5t80.5 -33.5t33.5 -80.5t-33.5 -80.5t-80.5 -33.5zM569 -7q-47 0 -80.5 33.5t-33.5 80.5t33.5 80.5t80.5 33.5t80.5 -33.5t33.5 -80.5t-33.5 -80.5t-80.5 -33.5zM909 -7q-47 0 -80.5 33.5t-33.5 80.5t33.5 80.5
t80.5 33.5t80.5 -33.5t33.5 -80.5t-33.5 -80.5t-80.5 -33.5z" />
    <glyph glyph-name="perthousand" unicode="&#x2030;" horiz-adv-x="1946" 
d="M323 295q-125 0 -204 55t-79 159t79 159t204 55t204 -55t79 -159t-79 -159t-204 -55zM1105 700l-660 -700h-209l660 700h209zM323 425q137 0 137 84t-137 84t-137 -84t137 -84zM1023 -23q-125 0 -204 55t-79 159t79 159t204 55t204 -55t79 -159t-79 -159t-204 -55z
M1623 -23q-125 0 -204 55t-79 159t79 159t204 55t204 -55t79 -159t-79 -159t-204 -55zM1023 107q137 0 137 84t-137 84t-137 -84t137 -84zM1623 107q137 0 137 84t-137 84t-137 -84t137 -84z" />
    <glyph glyph-name="guilsinglleft" unicode="&#x2039;" horiz-adv-x="570" 
d="M456 536l-140 -200l140 -200h-164l-207 200l207 200h164z" />
    <glyph glyph-name="guilsinglright" unicode="&#x203a;" horiz-adv-x="570" 
d="M278 536l207 -200l-207 -200h-164l140 200l-140 200h164z" />
    <glyph glyph-name="fraction" unicode="&#x2044;" horiz-adv-x="909" 
d="M889 700l-660 -700h-209l660 700h209z" />
    <glyph glyph-name="Euro" unicode="&#x20ac;" horiz-adv-x="933" 
d="M555 137q198 0 304 99l-1 -197q-116 -62 -303 -62q-136 0 -243 60t-149 175h-125v113h103q-1 8 -1 24q0 24 1 36h-103v113h129q43 110 148 167.5t240 57.5q184 0 303 -62v-194q-118 106 -303 106q-129 0 -193 -75h296v-113h-343q-2 -24 -2 -36q0 -16 1 -24h344v-113h-301
q61 -75 198 -75z" />
    <glyph glyph-name="trademark" unicode="&#x2122;" horiz-adv-x="1345" 
d="M55 579v121h447v-121h-151v-263h-145v263h-151zM1003 700h190v-384h-136v214l-124 -214h-112l-123 213v-213h-136v384h191l124 -216z" />
    <glyph glyph-name="minus" unicode="&#x2212;" horiz-adv-x="745" 
d="M649 283h-553v147h553v-147z" />
    <glyph glyph-name="notequal" unicode="&#x2260;" horiz-adv-x="745" 
d="M649 392h-178l-37 -84h215v-147h-278l-40 -94h-160l40 94h-115v147h178l37 84h-215v147h278l40 94h160l-40 -94h115v-147z" />
    <glyph glyph-name="lessequal" unicode="&#x2264;" horiz-adv-x="695" 
d="M596 363v-155l-492 137v170l492 137v-155l-283 -67zM75 175h553v-147h-553v147z" />
    <glyph glyph-name="greaterequal" unicode="&#x2265;" horiz-adv-x="695" 
d="M591 515v-170l-492 -137v155l283 67l-283 67v155zM67 175h553v-147h-553v147z" />
    <glyph glyph-name="lozenge" unicode="&#x25ca;" horiz-adv-x="917" 
d="M551 700l310 -350l-310 -350h-185l-310 350l310 350h185zM458 96l221 255l-221 252l-220 -252z" />
    <glyph glyph-name="i.loclTRK" horiz-adv-x="438" 
d="M219 738q-41 0 -70 29t-29 69t29 69t70 29t69.5 -29t28.5 -69t-28.5 -69t-69.5 -29zM133 700h172v-700h-172v700z" />
    <glyph glyph-name="uni030C.alt" horiz-adv-x="0" 
d="M-30 745l-53 -300h-143l22 300h174z" />
    </font>
</defs>
</svg>
