<?xml version="1.0" encoding="UTF-8"?>
<svg viewBox="0 0 27 24" version="1.1" xmlns="http://www.w3.org/2000/svg" xmlns:xlink="http://www.w3.org/1999/xlink">
    <!-- Generator: Sketch 45.1 (43504) - http://www.bohemiancoding.com/sketch -->
    <title>logo-amex</title>
    <desc>Created with Sketch.</desc>
    <defs>
        <radialGradient cx="16.6970881%" cy="17.2777778%" fx="16.6970881%" fy="17.2777778%" r="118.513328%" gradientTransform="translate(0.166971,0.172778),scale(0.988742,1.000000),translate(-0.166971,-0.172778)" id="radialGradient-1">
            <stop stop-color="#84D5F7" offset="0%"></stop>
            <stop stop-color="#7ED3F6" offset="5%"></stop>
            <stop stop-color="#6DCEF4" offset="12%"></stop>
            <stop stop-color="#51C5F0" offset="20%"></stop>
            <stop stop-color="#2BB8EB" offset="29%"></stop>
            <stop stop-color="#00AAE5" offset="37%"></stop>
            <stop stop-color="#009EDC" offset="45%"></stop>
            <stop stop-color="#008CCE" offset="63%"></stop>
            <stop stop-color="#0081C6" offset="80%"></stop>
            <stop stop-color="#007DC3" offset="100%"></stop>
        </radialGradient>
    </defs>
    <g id="Checkout" stroke="none" stroke-width="1" fill="none" fill-rule="evenodd">
        <g id="800_Checkout---page" transform="translate(-346.000000, -851.000000)" fill-rule="nonzero">
            <g id="card-flags" transform="translate(211.000000, 851.000000)">
                <g id="logo-amex" transform="translate(135.000000, 0.000000)">
                    <path d="M26.583559,0 L3.10631993,0 L3.10631993,23.3513514 L26.583559,23.3513514 L26.583559,15.6518919 C26.6812316,15.499091 26.7291752,15.3201973 26.720891,15.1394595 C26.7358851,14.9580668 26.6873837,14.7770916 26.583559,14.627027 L26.583559,0 Z" id="Shape" fill="url(#radialGradient-1)"></path>
                    <path d="M3.10631993,11.8313514 L4.23113473,11.8313514 L4.48617994,11.2216216 L5.05512696,11.2216216 L5.31017218,11.8313514 L7.52710366,11.8313514 L7.52710366,11.3643243 L7.72329229,11.8313514 L8.87426557,11.8313514 L9.0704542,11.3578378 L9.0704542,11.8313514 L14.5833546,11.8313514 L14.5833546,10.8324324 L14.6879886,10.8324324 C14.766464,10.8324324 14.7860829,10.8324324 14.7860829,10.9621622 L14.7860829,11.8313514 L17.6569764,11.8313514 L17.6569764,11.5978378 C17.9856117,11.7602637 18.3493345,11.8404343 18.716395,11.8313514 L19.9196853,11.8313514 L20.1747305,11.2216216 L20.7436775,11.2216216 L20.9921831,11.8313514 L23.3006693,11.8313514 L23.3006693,11.2540541 L23.6538088,11.8313514 L25.5045215,11.8313514 L25.5045215,8.01081081 L23.6734277,8.01081081 L23.6734277,8.43243243 L23.4183825,7.97837838 L21.5153528,7.97837838 L21.5153528,8.43243243 L21.2799264,7.97837838 L18.7425535,7.97837838 C18.3613375,7.9587921 17.9812784,8.03463243 17.6373576,8.19891892 L17.6373576,7.97837838 L15.8847392,7.97837838 L15.8847392,8.19891892 C15.6719514,8.03712921 15.4065962,7.95863121 15.1392224,7.97837838 L8.73693353,7.97837838 L8.30531855,8.96432432 L7.84754509,8.01081081 L5.84642109,8.01081081 L5.84642109,8.43243243 L5.62407398,7.97837838 L3.92377254,7.97837838 L3.12593879,9.79459459 L3.10631993,11.8313514 Z M24.8963368,11.292973 L23.961171,11.292973 L22.7121034,9.24324324 L22.7121034,11.292973 L21.3714811,11.292973 L21.1164359,10.6832432 L19.7431155,10.6832432 L19.4946099,11.292973 L18.7229347,11.292973 C18.3783151,11.3149291 18.0378395,11.2085276 17.76815,10.9945946 C17.5088773,10.7104967 17.3808804,10.331977 17.4150105,9.95027027 C17.3828852,9.560933 17.5101707,9.17516536 17.76815,8.88 C18.0422262,8.64000494 18.405064,8.52474615 18.768712,8.56216216 L19.4226741,8.56216216 L19.4226741,9.14594595 L18.768712,9.14594595 C18.583138,9.12528409 18.3975107,9.18429661 18.2586216,9.30810811 C18.1142874,9.49240689 18.0464408,9.72446003 18.0689726,9.95675676 C18.0465477,10.1880367 18.111833,10.4193041 18.2520819,10.6054054 C18.3809306,10.7087881 18.5445465,10.7597925 18.7098554,10.7481081 L19.0041384,10.7481081 L19.9327645,8.59459459 L20.9267869,8.59459459 L22.0450621,11.1891892 L22.0450621,8.59459459 L23.0521637,8.59459459 L24.1965974,10.4627027 L24.1965974,8.55567568 L24.8505594,8.55567568 L24.8963368,11.292973 Z M17.0880294,11.292973 L16.4340673,11.292973 L16.4340673,8.55567568 L17.0880294,8.55567568 L17.0880294,11.292973 Z M16.0286108,9.29513514 C16.0368189,9.60831832 15.8533652,9.89535876 15.5642978,10.0216216 C15.6929942,10.0679157 15.806196,10.1487587 15.8912788,10.2551351 C15.984002,10.4044467 16.0231759,10.5804399 16.0024524,10.7545946 L16.0024524,11.292973 L15.3484903,11.292973 L15.3484903,10.9491892 C15.3766925,10.7652245 15.3397145,10.5772517 15.2438563,10.4172973 C15.145762,10.32 15.0018904,10.3005405 14.766464,10.3005405 L14.0405661,10.3005405 L14.0405661,11.292973 L13.386604,11.292973 L13.386604,8.55567568 L14.903796,8.55567568 C15.1771864,8.53079174 15.4523621,8.57777319 15.7016298,8.69189189 C15.9200147,8.81311245 16.0495037,9.04732097 16.0351505,9.29513514 L16.0286108,9.29513514 Z M12.9222909,11.292973 L10.7184387,11.292973 L10.7184387,8.55567568 L12.9222909,8.55567568 L12.9222909,9.12648649 L11.38548,9.12648649 L11.38548,9.61945946 L12.8895928,9.61945946 L12.8895928,10.1837838 L11.38548,10.1837838 L11.38548,10.7286486 L12.9288305,10.7286486 L12.9222909,11.292973 Z M10.2279671,11.292973 L9.57400501,11.292973 L9.57400501,9.15243243 L8.61922035,11.292973 L8.04373371,11.292973 L7.05625096,9.14594595 L7.05625096,11.292973 L5.71562867,11.292973 L5.46058346,10.6832432 L4.08726307,10.6832432 L3.83221785,11.292973 L3.11285955,11.292973 L4.28999131,8.55567568 L5.27093445,8.55567568 L6.38920963,11.1502703 L6.38920963,8.55567568 L7.46824708,8.55567568 L8.33147703,10.4172973 L9.15546927,8.55567568 L10.2541256,8.55567568 L10.2279671,11.292973 Z M20.8875492,10.1124324 L20.4297757,9.0227027 L19.9785419,10.1124324 L20.8875492,10.1124324 Z M15.1719205,9.67783784 C15.0698108,9.72489209 14.9571824,9.74500047 14.8449395,9.73621622 L14.0405661,9.73621622 L14.0405661,9.12648649 L14.8514791,9.12648649 C14.9582377,9.11758701 15.0656311,9.13312129 15.1653809,9.17189189 C15.2549935,9.21790153 15.3088322,9.31198944 15.3027129,9.41189189 C15.3110039,9.51751441 15.2609453,9.61930073 15.1719205,9.67783784 L15.1719205,9.67783784 Z M5.23169673,10.1124324 L4.77392326,9.0227027 L4.32268942,10.1124324 L5.23169673,10.1124324 Z" id="Shape" fill="#FFFFFF"></path>
                    <path d="M15.8912788,14.1664865 C15.8912788,14.9254054 15.3223318,15.0810811 14.7403055,15.0810811 L13.9228529,15.0810811 L13.9228529,16.0021622 L12.6149287,16.0021622 L11.8040157,15.0940541 L10.9604046,16.0021622 L8.34455628,16.0021622 L8.34455628,13.2648649 L10.9996424,13.2648649 L11.8105554,14.16 L12.6476268,13.2648649 L14.7795432,13.2648649 C15.3092525,13.2648649 15.8912788,13.4075676 15.8912788,14.1664865 Z M10.6595821,15.4313514 L9.02467685,15.4313514 L9.02467685,14.9189189 L10.4633935,14.9189189 L10.4633935,14.3610811 L9.02467685,14.3610811 L9.02467685,13.8616216 L10.6792009,13.8616216 L11.3985592,14.6594595 L10.6595821,15.4313514 Z M13.2754304,15.7556757 L12.2617892,14.64 L13.2754304,13.5632432 L13.2754304,15.7556757 Z M14.7860829,14.5297297 L13.9228529,14.5297297 L13.9228529,13.8356757 L14.7795432,13.8356757 C15.0215092,13.8356757 15.1849997,13.932973 15.1849997,14.172973 C15.1849997,14.412973 15.0411281,14.5297297 14.7730036,14.5297297 L14.7860829,14.5297297 Z M19.2330251,13.2648649 L21.4368773,13.2648649 L21.4368773,13.8291892 L19.8869872,13.8291892 L19.8869872,14.3286486 L21.3911,14.3286486 L21.3911,14.9189189 L19.8869872,14.9189189 L19.8869872,15.4637838 L21.4303377,15.4637838 L21.4303377,16.0345946 L19.2264855,16.0345946 L19.2330251,13.2648649 Z M18.3959536,14.7308108 C18.5231095,14.7766037 18.6343317,14.857654 18.716395,14.9643243 C18.8081715,15.1140145 18.8472727,15.289681 18.8275686,15.4637838 L18.8275686,16.0086486 L18.1736065,16.0086486 L18.1736065,15.6648649 C18.1736065,15.5027027 18.1736065,15.2562162 18.0689726,15.132973 C17.9643386,15.0097297 17.8270066,15.0097297 17.5850406,15.0097297 L16.8656823,15.0097297 L16.8656823,16.0086486 L16.2117202,16.0086486 L16.2117202,13.2648649 L17.7354519,13.2648649 C18.0060287,13.2411539 18.278253,13.2857841 18.526746,13.3945946 C18.7498806,13.515068 18.8824792,13.752818 18.8668063,14.0043243 C18.8746667,14.3211667 18.6848405,14.6100404 18.389414,14.7308108 L18.3959536,14.7308108 Z M17.9970367,14.3935135 C17.894927,14.4405678 17.7822987,14.4606761 17.6700557,14.4518919 L16.8656823,14.4518919 L16.8656823,13.8356757 L17.6569764,13.8356757 C17.7637816,13.8250284 17.8715871,13.8406223 17.9708783,13.8810811 C18.0615393,13.9293092 18.1152822,14.025768 18.1082103,14.1275676 C18.1180555,14.2304543 18.073522,14.3310677 17.9904971,14.3935135 L17.9970367,14.3935135 Z M23.9480918,14.5621622 C24.0919043,14.7189721 24.1630406,14.928295 24.1442804,15.1394595 C24.1442804,15.7297297 23.771522,16.0021622 23.1110203,16.0021622 L21.8030961,16.0021622 L21.8030961,15.4118919 L23.1110203,15.4118919 C23.2062246,15.4219273 23.3017903,15.3964961 23.3791447,15.3405405 C23.428688,15.2955043 23.4571165,15.2320599 23.4576202,15.1654054 C23.4607888,15.0961563 23.4318867,15.0292659 23.3791447,14.9837838 C23.3114812,14.9339791 23.2275856,14.9108641 23.1437184,14.9189189 C22.528994,14.9189189 21.7573188,14.9189189 21.7573188,14.0691892 C21.7573188,13.6735135 22.0058243,13.2518919 22.6990242,13.2518919 L24.0069483,13.2518919 L24.0069483,13.8356757 L22.8036581,13.8356757 C22.7110245,13.8250785 22.6173559,13.8432068 22.5355336,13.8875676 C22.4677394,13.9371034 22.4317796,14.0187809 22.4412264,14.1017729 C22.4506733,14.184765 22.5040881,14.2564338 22.581311,14.2897297 C22.6657476,14.3036416 22.7519196,14.3036416 22.8363562,14.2897297 L23.1894957,14.2897297 C23.4683636,14.2798323 23.7402538,14.3774755 23.9480918,14.5621622 L23.9480918,14.5621622 Z M26.5639401,15.6583784 C26.3424461,15.9154276 26.0067623,16.0466659 25.6680121,16.0086486 L24.4124048,16.0086486 L24.4124048,15.4183784 L25.6810913,15.4183784 C25.7763945,15.4297229 25.8724364,15.4041649 25.9492158,15.347027 C25.998759,15.3019908 26.0271875,15.2385464 26.0276912,15.1718919 C26.0299185,15.1028157 26.0011822,15.0363093 25.9492158,14.9902703 C25.8815523,14.9404656 25.7976566,14.9173506 25.7137894,14.9254054 C25.0925254,14.9254054 24.3208502,14.9254054 24.3208502,14.0756757 C24.3208502,13.68 24.5758954,13.2583784 25.2690952,13.2583784 L26.5770194,13.2583784 L26.5770194,12.7135135 L25.3606499,12.7135135 C25.0686255,12.7002742 24.7799605,12.7798074 24.5366576,12.9405405 L24.5366576,12.7135135 L22.7251826,12.7135135 C22.443243,12.6992842 22.1646331,12.7792191 21.9338885,12.9405405 L21.9338885,12.7135135 L18.7098554,12.7135135 L18.7098554,12.972973 C18.4394939,12.8190417 18.1321572,12.7405903 17.820467,12.7459459 L15.6950902,12.7459459 L15.6950902,12.972973 C15.4186957,12.7990985 15.0926646,12.7193917 14.766464,12.7459459 L12.386042,12.7459459 L11.8432535,13.3297297 L11.333163,12.7459459 L7.77560926,12.7459459 L7.77560926,16.5405405 L11.2677668,16.5405405 L11.8301742,15.9437838 L12.3598835,16.5405405 L14.5114188,16.5405405 L14.5114188,15.6454054 L14.7272263,15.6454054 C15.0386206,15.6632609 15.350365,15.6168792 15.6427732,15.5091892 L15.6427732,16.5405405 L17.4150105,16.5405405 L17.4150105,15.5675676 L17.5000255,15.5675676 C17.6111991,15.5675676 17.6177387,15.5675676 17.6177387,15.6778378 L17.6177387,16.5405405 L23.0063863,16.5405405 C23.3235239,16.5521022 23.6364933,16.4659985 23.9023144,16.2940541 L23.9023144,16.5405405 L25.6156951,16.5405405 C25.9472861,16.5522322 26.2774911,16.4924815 26.583559,16.3654054 L26.5639401,15.6583784 Z M26.5639401,13.8551351 L25.3737291,13.8551351 C25.2810955,13.844538 25.1874269,13.8626663 25.1056047,13.907027 C25.0396324,13.9493452 25.0020589,14.0238817 25.0075103,14.1016216 C25.0057861,14.1927008 25.0641348,14.2742515 25.151382,14.3027027 C25.2358086,14.3167341 25.3220006,14.3167341 25.4064272,14.3027027 L25.7595668,14.3027027 C26.0293987,14.2787554 26.2983001,14.3576107 26.5116232,14.5232432 L26.5704797,14.5945946 L26.5639401,13.8551351 Z" id="Shape" fill="#FFFFFF"></path>
                    <path d="M1.60220712,22.8843243 L1.39947887,22.8843243 C1.3887609,22.7938246 1.3887609,22.7023916 1.39947887,22.6118919 C1.39947887,22.5340541 1.39947887,22.4627027 1.24906759,22.4627027 L0.909007306,22.4627027 L0.909007306,22.8843243 L0.732437542,22.8843243 L0.732437542,21.852973 L1.21636949,21.852973 C1.37986001,21.852973 1.56950902,21.9113514 1.56950902,22.1448649 C1.57691,22.2367657 1.5345884,22.3256598 1.45833546,22.3783784 C1.50411281,22.3783784 1.54335053,22.4497297 1.54989015,22.5664865 L1.54989015,22.7481081 C1.54989015,22.8 1.54989015,22.812973 1.60220712,22.8324324 L1.60220712,22.8843243 Z M1.37986001,22.1513514 C1.37986001,22.0216216 1.28830532,22.0086486 1.22290911,22.0086486 L0.909007306,22.0086486 L0.909007306,22.3005405 L1.19675063,22.3005405 C1.30792418,22.3005405 1.37986001,22.2745946 1.37986001,22.1513514 Z M2.23655035,22.3783784 C2.23919885,21.9291723 1.96842549,21.5227352 1.55077135,21.3490081 C1.13311721,21.175281 0.651058452,21.2685708 0.329876613,21.58528 C0.00869477391,21.9019893 -0.0881848381,22.3795759 0.0845127319,22.7948484 C0.257210302,23.2101209 0.665381643,23.4810734 1.11827517,23.4810811 C1.41425722,23.482808 1.69871445,23.3673936 1.90862185,23.1604092 C2.11852925,22.9534249 2.23655547,22.6719607 2.23655035,22.3783784 L2.23655035,22.3783784 Z M2.06652021,22.3783784 C2.07920157,22.6344227 1.98448467,22.8842559 1.80485414,23.0685708 C1.62522361,23.2528856 1.37669833,23.3552455 1.11827517,23.3513514 C0.594573905,23.3513514 0.170030144,22.930257 0.170030144,22.4108108 C0.170030144,21.8913646 0.594573905,21.4702703 1.11827517,21.4702703 C1.63226499,21.4630282 2.05578797,21.8686244 2.06652021,22.3783784 L2.06652021,22.3783784 Z" id="Shape" fill="#007DC3"></path>
                    <path d="M16.0351505,9.29513514 C16.0433586,9.60831832 15.8599049,9.89535876 15.5708374,10.0216216 C15.6995338,10.0679157 15.8127356,10.1487587 15.8978184,10.2551351 C15.9905416,10.4044467 16.0297155,10.5804399 16.008992,10.7545946 L16.008992,11.292973 L15.3550299,11.292973 L15.3550299,10.9491892 C15.3832322,10.7652245 15.3462541,10.5772517 15.250396,10.4172973 C15.1523016,10.32 15.00843,10.3005405 14.7730036,10.3005405 L14.0405661,10.3005405 L14.0405661,11.292973 L13.386604,11.292973 L13.386604,8.55567568 L14.903796,8.55567568 C15.176609,8.52876549 15.451759,8.57350557 15.7016298,8.68540541 C15.9222369,8.80766131 16.0520862,9.04504676 16.0351505,9.29513514 Z" id="Shape" fill="#00AAE5"></path>
                    <polygon id="Shape" fill="#00B1E8" points="12.9288305 11.292973 10.7184387 11.292973 10.7184387 8.55567568 12.9288305 8.55567568 12.9288305 9.12648649 11.38548 9.12648649 11.38548 9.61945946 12.8895928 9.61945946 12.8895928 10.1772973 11.38548 10.1772973 11.38548 10.7286486 12.9288305 10.7286486"></polygon>
                    <polygon id="Shape" fill="#47BAEB" points="10.2279671 11.292973 9.55438614 11.292973 9.54784652 9.15243243 8.59306187 11.292973 8.01757523 11.292973 7.05625096 9.14594595 7.05625096 11.292973 5.71562867 11.292973 5.46058346 10.6832432 4.08726307 10.6832432 3.83221785 11.292973 3.11285955 11.292973 4.29653094 8.55567568 5.27747407 8.55567568 6.39574925 11.1502703 6.39574925 8.55567568 7.4747867 8.55567568 8.33801666 10.4108108 9.12931079 8.55567568 10.2279671 8.55567568"></polygon>
                    <path d="M15.1719205,9.67783784 C15.0698108,9.72489209 14.9571824,9.74500047 14.8449395,9.73621622 L14.0405661,9.73621622 L14.0405661,9.12648649 L14.8514791,9.12648649 C14.9582518,9.11711263 15.0657542,9.13266268 15.1653809,9.17189189 C15.2549935,9.21790153 15.3088322,9.31198944 15.3027129,9.41189189 C15.3124679,9.51778572 15.2620621,9.62027808 15.1719205,9.67783784 L15.1719205,9.67783784 Z" id="Shape" fill="#FFFFFF"></path>
                    <polygon id="Shape" fill="#FFFFFF" points="5.2251571 10.1124324 4.77392326 9.0227027 4.32268942 10.1124324"></polygon>
                </g>
            </g>
        </g>
    </g>
</svg>
