<svg id="Layer_1" data-name="Layer 1" xmlns="http://www.w3.org/2000/svg" viewBox="0 0 80.82 21.53"><defs><style>.cls-1{fill:#231f20;}.cls-2{fill:#004a97;}</style></defs><title>diners</title><path class="cls-1" d="M28.36,4.63c0-1-.53-1-1-1V3.38c.44,0,.89,0,1.34,0l2,0c2.93,0,4.53,2,4.53,4,0,1.12-.66,3.94-4.66,3.94l-1.64,0-1.52,0V11c.68-.07,1-.09,1-.86Zm1.11,5.31c0,.87.62,1,1.18,1,2.45,0,3.25-1.84,3.25-3.53a3.4,3.4,0,0,0-3.54-3.65c-.46,0-.68,0-.88,0Z" transform="translate(0 0)"/><path class="cls-1" d="M35.54,11h.21c.32,0,.54,0,.54-.37V7.54c0-.5-.17-.57-.59-.79V6.57c.53-.16,1.17-.37,1.21-.41a.41.41,0,0,1,.2-.06c.06,0,.08.07.08.16v4.35c0,.37.25.37.57.37H38v.29l-1.19,0-1.23,0Zm1.21-6.62a.58.58,0,0,1-.56-.57.58.58,0,0,1,.56-.54.55.55,0,0,1,.55.54A.57.57,0,0,1,36.75,4.36Z" transform="translate(0 0)"/><path class="cls-1" d="M39,7.61c0-.42-.12-.53-.66-.75V6.65a15.78,15.78,0,0,0,1.49-.54s.07,0,.07.11V7a3.31,3.31,0,0,1,2-.85c1,0,1.3.7,1.3,1.58v2.92c0,.37.25.37.57.37H44v.29l-1.2,0-1.22,0V11h.2c.32,0,.54,0,.54-.37V7.68c0-.65-.4-1-1-1a3,3,0,0,0-1.31.54v3.35c0,.37.25.37.57.37h.2v.29l-1.2,0-1.22,0V11h.21c.32,0,.54,0,.54-.37Z" transform="translate(0 0)"/><path class="cls-1" d="M44.83,8.15a2.67,2.67,0,0,0,0,.66,1.89,1.89,0,0,0,1.66,2A2.17,2.17,0,0,0,48,10l.16.16a2.65,2.65,0,0,1-2.09,1.28A2.27,2.27,0,0,1,43.93,9c0-2.22,1.49-2.88,2.29-2.88a1.8,1.8,0,0,1,1.91,1.78,1.4,1.4,0,0,1,0,.2l-.1.07Zm2-.36c.28,0,.31-.15.31-.28a1,1,0,0,0-1-1c-.69,0-1.17.51-1.3,1.32Z" transform="translate(0 0)"/><path class="cls-1" d="M48.39,11h.31c.32,0,.54,0,.54-.37V7.43c0-.35-.42-.42-.59-.51V6.75c.83-.35,1.28-.65,1.38-.65s.1,0,.1.15v1h0c.28-.44.76-1.17,1.45-1.17a.62.62,0,0,1,.64.6.55.55,0,0,1-.53.58c-.35,0-.35-.27-.75-.27a1,1,0,0,0-.83.94v2.66c0,.37.23.37.54.37h.63v.29l-1.58,0-1.35,0Z" transform="translate(0 0)"/><path class="cls-1" d="M52.74,9.71a1.49,1.49,0,0,0,1.43,1.38.8.8,0,0,0,.91-.8c0-1.34-2.47-.91-2.47-2.73A1.56,1.56,0,0,1,54.38,6.1a3,3,0,0,1,1.29.33l.08,1.15h-.26a1.16,1.16,0,0,0-1.23-1.12.8.8,0,0,0-.88.75c0,1.33,2.63.92,2.63,2.7,0,.75-.6,1.54-1.95,1.54a3,3,0,0,1-1.38-.38l-.12-1.3Z" transform="translate(0 0)"/><path class="cls-1" d="M66.22,5.42h-.28a2.15,2.15,0,0,0-2.42-1.86,3.23,3.23,0,0,0-3.19,3.59,3.69,3.69,0,0,0,3.37,3.93,2.3,2.3,0,0,0,2.28-2l.26.07L66,10.85a6.35,6.35,0,0,1-2.5.6,4,4,0,0,1-4.32-4.26,4.16,4.16,0,0,1,4.29-4,8.17,8.17,0,0,1,2.67.6Z" transform="translate(0 0)"/><path class="cls-1" d="M66.63,11h.22c.32,0,.54,0,.54-.37V4.31c0-.74-.17-.76-.6-.88V3.24A7.13,7.13,0,0,0,68,2.75a1.21,1.21,0,0,1,.25-.12c.07,0,.09.07.09.16v7.82c0,.37.25.37.57.37H69v.29l-1.19,0-1.23,0Z" transform="translate(0 0)"/><path class="cls-1" d="M73.9,10.66c0,.2.12.22.32.22h.45v.24a11.62,11.62,0,0,0-1.63.35l-.06,0V10.5a3.06,3.06,0,0,1-2,.95,1.22,1.22,0,0,1-1.24-1.35V7.2c0-.29,0-.58-.68-.63V6.35l1.46-.08c.13,0,.13.08.13.33V9.52c0,.34,0,1.31,1,1.31A2.54,2.54,0,0,0,73,10.15v-3c0-.23-.54-.35-.95-.46v-.2c1-.07,1.65-.16,1.77-.16s.09.08.09.2Z" transform="translate(0 0)"/><path class="cls-1" d="M76.15,6.92a2.87,2.87,0,0,1,1.69-.81,2.2,2.2,0,0,1,2.11,2.38,2.86,2.86,0,0,1-2.71,3,3.34,3.34,0,0,1-1.57-.4l-.34.26-.24-.12a13.49,13.49,0,0,0,.16-2V4.31c0-.74-.17-.76-.6-.88V3.24a7.07,7.07,0,0,0,1.17-.49,1.16,1.16,0,0,1,.25-.12c.07,0,.09.07.09.16Zm0,3.08a1.22,1.22,0,0,0,1.17,1.15C78.53,11.15,79,10,79,9a2.16,2.16,0,0,0-1.81-2.24,1.74,1.74,0,0,0-1.08.53Z" transform="translate(0 0)"/><path class="cls-1" d="M29.18,18.07l-1,0h0l-.91,0h0v-.24h.11c.22,0,.43,0,.43-.33h0V14.28c0-.3-.21-.32-.43-.33h-.11v-.24h0l.91,0h0l1,0h0V14H29.1c-.22,0-.43,0-.43.33h0v3.23c0,.3.21.32.43.33h.11v.24Z" transform="translate(0 0)"/><path class="cls-1" d="M33.77,18.17h-.25l-3.13-3.48v2.47c0,.54.09.69.55.7h.13v.24h0l-.8,0h0l-.84,0h0v-.24h.11c.41,0,.52-.26.53-.76h0V14.49A.53.53,0,0,0,29.5,14h-.11v-.24h0l.71,0h0c.18,0,.36,0,.57,0h0l2.71,3V14.51c0-.49-.33-.55-.51-.55h-.16v-.24h0l.86,0h0l.76,0h0V14h-.12c-.26,0-.52,0-.52.76h0v2.8a4.07,4.07,0,0,0,0,.62h0v0Zm-.36-1.33,0,0,0,0Zm0,0h0Z" transform="translate(0 0)"/><path class="cls-1" d="M35.3,14.08c-.46,0-.44.09-.55.54h0v0h-.24v0c0-.17.06-.34.07-.52h0a3.57,3.57,0,0,0,0-.52h0v0h.2v0c0,.16.16.16.31.16h3.21c.17,0,.3,0,.31-.17h0v0h0l.17,0v0c0,.17,0,.33-.07.5h0c0,.16,0,.33,0,.5h0v0h0l-.22.08v0c0-.23,0-.57-.43-.57h-1v3.25c0,.47.19.5.49.5h.14v.24h0l-1,0h0l-1,0h0v-.24h.14c.34,0,.48,0,.48-.49h0V14.08h-1" transform="translate(0 0)"/><path class="cls-1" d="M42.32,18.07l-1.66,0h0l-1.64,0h0v-.24h.11c.22,0,.43,0,.43-.33h0V14.28c0-.3-.21-.32-.43-.33H39v-.24h0l1.53,0h0l1.58,0h0v0c0,.09,0,.2,0,.32h0c0,.21,0,.45,0,.62h0v0h0l-.22.06v0c0-.4-.09-.69-.72-.7h-.83V15.6h.71c.36,0,.42-.18.46-.52h0v0h.24v0c0,.24,0,.48,0,.72h0c0,.23,0,.47,0,.7h0v0h0l-.21,0v0c0-.38,0-.58-.45-.59h-.71v1.41c0,.37.32.37.73.37h0c.74,0,1,0,1.22-.73h0v0h0l.2.05v0c-.08.33-.15.65-.21,1h0v0Z" transform="translate(0 0)"/><path class="cls-1" d="M51.56,18.17h-.25l-3.13-3.48v2.47c0,.54.09.69.55.7h.13v.24h0L48,18h0l-.84,0h0v-.24h.11c.41,0,.52-.26.53-.76h0V14.49a.53.53,0,0,0-.53-.53h-.11v-.24h0l.71,0h0c.18,0,.36,0,.57,0h0l2.71,3V14.51c0-.49-.33-.55-.51-.55h-.16v-.24h0l.86,0h0l.76,0h0V14h-.12c-.25,0-.52,0-.52.76h0v2.8a3.94,3.94,0,0,0,0,.62h0v0Zm-.37-1.35h0Z" transform="translate(0 0)"/><path class="cls-1" d="M56.4,17.83A.36.36,0,0,1,56,17.6c-.08-.18-.15-.41-.23-.62l-1.14-3.22-.06-.15a.07.07,0,0,0-.07,0h-.06a3.37,3.37,0,0,1-.56.27,7.13,7.13,0,0,1-.24.78l-1,2.83a.53.53,0,0,1-.51.38h-.06v.24h0l.66,0,.74,0h0v-.24h-.09c-.2,0-.44,0-.44-.19a2.6,2.6,0,0,1,.14-.47l.19-.62h1.36l.23.7a1.93,1.93,0,0,1,.12.43c0,.12-.21.15-.35.15h-.1v.24h0l.92,0,.85,0h0v-.24Zm-3-1.63.59-1.8h.05l.58,1.8Z" transform="translate(0 0)"/><polygon class="cls-1" points="54.03 14.45 54.04 14.44 54.03 14.45 54.03 14.45"/><path class="cls-1" d="M56.71,14.08c-.46,0-.45.09-.55.54h0v0h-.24v0c0-.17.06-.34.07-.52h0a3.59,3.59,0,0,0,0-.52h0v0h.19v0c0,.16.16.16.31.16h3.21c.17,0,.3,0,.31-.17h0v0h0l.18,0v0c0,.17,0,.33-.07.5h0c0,.16,0,.33,0,.5h0v0h0l-.22.08v0c0-.23,0-.57-.43-.57h-1v3.25c0,.47.19.5.48.5h.14v.24h0l-1,0h0l-1,0h0v-.24h.14c.34,0,.48,0,.48-.49h0V14.08h-1" transform="translate(0 0)"/><path class="cls-1" d="M62.35,18.07l-1,0h0l-.91,0h0v-.24h.11c.22,0,.43,0,.43-.33h0V14.28c0-.3-.2-.32-.43-.33h-.11v-.24h0l.91,0h0l1,0h0V14h-.11c-.23,0-.43,0-.43.33h0v3.23c0,.3.21.32.43.33h.11v.24Z" transform="translate(0 0)"/><path class="cls-1" d="M64.8,13.63a2.27,2.27,0,0,0-2.3,2.3,2.21,2.21,0,0,0,2.33,2.24,2.29,2.29,0,0,0,2.35-2.39A2.19,2.19,0,0,0,64.8,13.63Zm.09,4.27c-1,0-1.53-1.07-1.53-2.18,0-.83.33-1.81,1.43-1.81s1.53,1.11,1.54,2S66.11,17.89,64.9,17.89Z" transform="translate(0 0)"/><path class="cls-1" d="M71.67,18.17h-.26l-3.13-3.48v2.47c0,.54.09.69.55.69H69v.24h0l-.79,0h0l-.84,0h0v-.24h.11c.41,0,.52-.26.53-.75h0V14.49A.53.53,0,0,0,67.4,14h-.1v-.24h0l.71,0h0c.18,0,.36,0,.57,0h0l2.71,3V14.51c0-.49-.33-.55-.51-.55h-.16v-.24h0l.86,0h0l.76,0h0V14h-.12c-.25,0-.52,0-.52.76h0v2.8a4.21,4.21,0,0,0,0,.62h0v0Zm-.37-1.35h0Z" transform="translate(0 0)"/><path class="cls-1" d="M80,18.07l-1.62,0h0l-1.63,0h0v-.24h.11c.22,0,.44,0,.44-.39h0V14.28c0-.3-.21-.32-.44-.32h-.11v-.24h0l1,0h0l.94,0h0V14h-.18c-.24,0-.39,0-.39.31h0v3.18c0,.23.15.29.35.32h.34l.47,0h0a.86.86,0,0,0,.57-.32h0A1.37,1.37,0,0,0,80,17h0v0h.23v0c-.07.35-.15.7-.23,1h0v0Z" transform="translate(0 0)"/><path class="cls-1" d="M80.17,13.57a.65.65,0,1,1-.65.65A.64.64,0,0,1,80.17,13.57Zm0,1.18a.53.53,0,1,0-.51-.53A.52.52,0,0,0,80.17,14.75Zm-.32-.18v0c.08,0,.09,0,.09-.06V14c0-.07,0-.09-.09-.09v0h.33c.11,0,.22.06.22.17a.2.2,0,0,1-.15.2l.11.15a.69.69,0,0,0,.14.15v0h-.13c-.06,0-.11-.13-.23-.3h-.07v.21s0,0,.09.05v0Zm.22-.34h.08c.08,0,.12-.06.12-.16a.12.12,0,0,0-.13-.14h-.07Z" transform="translate(0 0)"/><path class="cls-2" d="M10.86,21.53A10.79,10.79,0,0,1,0,10.86,10.62,10.62,0,0,1,10.86,0h2.79A11,11,0,0,1,24.91,10.86c0,5.87-5.37,10.67-11.26,10.67Zm0-20.64a9.85,9.85,0,1,0,9.85,9.86A9.86,9.86,0,0,0,10.88.89ZM8.64,16.57V4.92a6.24,6.24,0,0,0,0,11.66Zm8.48-5.83a6.25,6.25,0,0,0-4-5.83V16.57A6.25,6.25,0,0,0,17.13,10.75Z" transform="translate(0 0)"/><path class="cls-1" d="M76.51,17.84a.36.36,0,0,1-.38-.23c-.08-.18-.15-.41-.23-.63l-1.13-3.22-.06-.15a.07.07,0,0,0-.07,0h-.06a3.27,3.27,0,0,1-.56.27,7.75,7.75,0,0,1-.24.78l-1,2.83a.54.54,0,0,1-.51.38h-.06v.24h0l.66,0,.74,0h0v-.24h-.09c-.2,0-.43,0-.43-.19a2.57,2.57,0,0,1,.13-.47l.19-.62h1.36l.23.7a1.9,1.9,0,0,1,.12.43c0,.12-.21.15-.36.15h-.09v.24h0l.92,0,.85,0h0v-.24Zm-3-1.63.59-1.8h0l.58,1.8Z" transform="translate(0 0)"/><path class="cls-1" d="M47,17.84a.66.66,0,0,1-.58-.36l-1-1.55a1.18,1.18,0,0,0,.84-1.1c0-.89-.72-1.11-1.49-1.11l-1,0-1,0V14h.14c.19,0,.41,0,.41.44v3.13c0,.21-.19.3-.41.31h-.14v.24l.92,0,1.09,0v-.24h-.14c-.29,0-.47,0-.48-.47V16.08h.36a17.42,17.42,0,0,0,1.28,2c.21,0,.41,0,.6,0l.61,0h0v-.24Zm-2.57-2h-.33V14h0a2.86,2.86,0,0,1,.35,0,.87.87,0,0,1,.93.93C45.43,15.6,45.07,15.85,44.45,15.85Z" transform="translate(0 0)"/></svg>
