<?xml version="1.0" encoding="utf-8"?>
<!-- Generator: Adobe Illustrator 19.2.0, SVG Export Plug-In . SVG Version: 6.00 Build 0)  -->
<svg version="1.1" id="Layer_1" xmlns="http://www.w3.org/2000/svg" xmlns:xlink="http://www.w3.org/1999/xlink" x="0px" y="0px"
	 viewBox="0 0 30.4 30.4" style="enable-background:new 0 0 30.4 30.4;" xml:space="preserve">
<style type="text/css">
	.st0{fill-rule:evenodd;clip-rule:evenodd;fill:#050013;stroke:#231F20;stroke-width:0.529;stroke-miterlimit:22.9256;}
	.st1{fill-rule:evenodd;clip-rule:evenodd;fill:#FFFFFF;}
	.st2{fill-rule:evenodd;clip-rule:evenodd;fill:#00A3DF;}
	.st3{fill-rule:evenodd;clip-rule:evenodd;fill:#FFF100;}
	.st4{fill-rule:evenodd;clip-rule:evenodd;fill:#EE4023;}
</style>
<g>
	<g>
		<path class="st0" d="M15.2,0.3c8.2,0,14.9,6.7,14.9,14.9c0,8.2-6.7,14.9-14.9,14.9S0.3,23.4,0.3,15.2C0.3,6.9,6.9,0.3,15.2,0.3
			L15.2,0.3z"/>
		<path class="st1" d="M8.8,11.2c2.2,0,4,1.5,4.5,3.5l-1.8,0.8l0,0l-1.9,0.8l-4.5,2c-0.5-0.7-0.8-1.6-0.8-2.5
			C4.2,13.2,6.2,11.2,8.8,11.2L8.8,11.2z M10.7,14l-4.6,2c0-0.1,0-0.2,0-0.2c0-1.4,1.2-2.6,2.6-2.6C9.6,13.2,10.3,13.5,10.7,14
			L10.7,14z"/>
		<path class="st1" d="M12,19.1c-1.6,1.6-3.8,1.7-5.7,0.6L7.3,18c1.1,0.6,2.2,0.5,3.3-0.3L12,19.1L12,19.1z"/>
		<path class="st1" d="M13.9,17.9l0-8.7h1.6v8.4c0,0.1,0,0.2,0.1,0.2l1.4,0.6l-0.6,1.7l-1.7-0.7C14.1,19.1,13.9,18.8,13.9,17.9
			L13.9,17.9z"/>
	</g>
	<g>
		<path class="st2" d="M20,17.8c-0.6-0.5-1-1.2-1-2.1c0-0.7,0.3-1.4,0.8-1.9l-1.1-1.7c-1.1,0.8-1.8,2.2-1.8,3.6c0,1.6,0.8,3,2,3.8
			L20,17.8z"/>
		<path class="st3" d="M20.8,13.2c0.3-0.1,0.6-0.2,0.9-0.2c1.1,0,2.1,0.7,2.5,1.7l2-0.2c-0.5-2-2.3-3.5-4.5-3.5
			c-0.6,0-1.2,0.1-1.7,0.3L20.8,13.2z"/>
		<path class="st4" d="M24.3,15.8c-0.1,1.4-1.2,2.5-2.6,2.5c-0.2,0-0.4,0-0.6-0.1l-0.8,1.8c0.5,0.1,0.9,0.2,1.4,0.2
			c2.5,0,4.5-2,4.6-4.4L24.3,15.8z"/>
	</g>
</g>
</svg>
