<?xml version="1.0" encoding="utf-8"?>
<!-- Generator: Adobe Illustrator 19.2.0, SVG Export Plug-In . SVG Version: 6.00 Build 0)  -->
<svg version="1.1" id="Layer_1" xmlns="http://www.w3.org/2000/svg" xmlns:xlink="http://www.w3.org/1999/xlink" x="0px" y="0px"
	 viewBox="0 0 61.5 26.8" style="enable-background:new 0 0 61.5 26.8;" xml:space="preserve">
<style type="text/css">
	.st0{fill-rule:evenodd;clip-rule:evenodd;fill:#961B1E;}
	.st1{fill-rule:evenodd;clip-rule:evenodd;fill:#FFFFFF;}
</style>
<g>
	<path id="fundo_2_" class="st0" d="M16.9,0c-2.1,0-6.4,0-6.4,0C7.7,0.1,5.4,1.3,4.7,3.6C4.4,4.8,4.2,6.2,3.9,7.4
		c-1.4,6.4-2.6,13-3.9,19.3h49.6c3.8,0,6.5-0.8,7.2-3.9c0.3-1.4,0.6-3,1-4.6C59,12.3,60.3,6.2,61.5,0H16.9z"/>
	<path id="hipercard_2_" class="st1" d="M16.4,9.5c0.3-0.2,0.6-1,0.2-1.4C16.5,8,16.3,8,16,8.1c-0.3,0-0.4,0.1-0.5,0.3
		c-0.2,0.2-0.3,0.9-0.1,1.2C15.7,9.8,16.2,9.6,16.4,9.5z M12.6,8.1c-0.2,1.2-0.4,2.5-0.6,3.7c-1.4,0-2.8,0.1-4.1,0
		c0.3-1.2,0.4-2.4,0.7-3.6H7c-0.5,3-1,6.1-1.6,9.1h1.5c0.2-1.5,0.5-3.1,0.8-4.5c1.3,0,2.9-0.1,4.1,0c-0.3,1.5-0.6,3-0.8,4.5h1.5
		c0.5-3.1,1-6.1,1.6-9.1H12.6z M34.2,10.8c-1.2-0.5-2.1,0.3-2.6,1.1c0.1-0.3,0.1-0.7,0.2-1.1h-1.2c-0.3,2.2-0.7,4.3-1.1,6.5h1.3
		c0.2-1.3,0.3-3,0.7-4.2c0.3-1,1.2-1.8,2.5-1.3C34,11.4,34.1,11.1,34.2,10.8z M34.9,15.7c-0.1-0.3-0.2-0.8-0.1-1.2
		c0.1-0.9,0.4-2,0.9-2.5c0.7-0.7,2.1-0.6,3.2-0.2c0-0.4,0.1-0.7,0.2-1.1c-1.8-0.3-3.5-0.1-4.4,0.8c-0.9,0.9-1.5,3.1-1.1,4.4
		c0.5,1.6,2.6,1.7,4.4,1.1c0.1-0.3,0.1-0.7,0.2-1C37.1,16.5,35.3,16.8,34.9,15.7z M49.9,10.8c-1.2-0.6-2.2,0.4-2.6,1
		c0.1-0.3,0.1-0.7,0.2-1h-1.2c-0.3,2.2-0.7,4.4-1.2,6.5h1.4c0-0.9,0.2-1.5,0.3-2.3c0.3-1.8,0.7-3.8,2.8-3.2
		C49.8,11.4,49.8,11.1,49.9,10.8z M15,10.8C15,10.8,15,10.8,15,10.8c-0.3,2.3-0.7,4.4-1.2,6.5h1.3c0.3-2.2,0.7-4.4,1.2-6.5H15z
		 M26.8,10.6c-1,0.1-1.8,0.4-2.4,1c-0.7,0.8-1.3,2.4-1.1,3.9c0.2,2.2,2.9,2.1,5.1,1.6c0-0.4,0.1-0.7,0.2-1.1
		c-0.9,0.3-2.4,0.8-3.3,0.2c-0.7-0.4-0.7-1.5-0.5-2.5c1.4,0,2.9,0,4.4,0c0.1-0.7,0.4-1.4,0.1-2.1C29,10.8,27.9,10.6,26.8,10.6z
		 M28.1,13h-3.1c0.1-0.7,0.7-1.5,1.8-1.6C27.7,11.4,28.3,11.8,28.1,13z M21.7,10.8c-1.1-0.4-2.5,0.1-3.1,0.6c0,0,0,0,0,0
		c0,0,0,0,0,0l0,0c0-0.2,0.1-0.4,0.1-0.6h-1.2c-0.5,3.2-1,6.3-1.6,9.4h1.3c0.2-1.2,0.3-2.5,0.6-3.6c0.3,1.2,2.3,1,3.1,0.5
		C22.7,16.1,24,11.6,21.7,10.8z M20.7,16c-0.7,0.8-2.5,0.7-2.6-0.5c-0.1-0.6,0.1-1.1,0.2-1.7c0.1-0.6,0.2-1.1,0.3-1.6
		c0.7-0.9,2.8-1,3,0.5C21.7,13.8,21.2,15.4,20.7,16z M54.9,8c-0.1,1-0.3,2-0.5,2.9c-3.3-1-5.3,1.4-5.3,4.4c0,0.6,0.1,1.1,0.5,1.6
		c0.6,0.7,2.4,0.9,3.3,0.3c0.2-0.1,0.4-0.3,0.5-0.5c0.1-0.1,0.2-0.4,0.2-0.3c0,0.3-0.1,0.6-0.1,1h1.2c0.2-3.4,1-6.2,1.5-9.3H54.9z
		 M51.9,16.5c-0.9,0-1.3-0.5-1.4-1.5c0-1.6,0.7-3.4,2.1-3.6c0.7-0.1,1.2,0.1,1.6,0.2C53.9,13.5,54,16.5,51.9,16.5z M40.4,10.8
		c-0.1,0.4-0.2,0.7-0.2,1.1c0.8-0.2,3.2-0.8,3.5,0.2c0.1,0.3-0.1,0.7-0.2,1c-2.2-0.2-4,0.2-4.5,1.7c-0.3,1.1,0,2.1,0.7,2.4
		c1.3,0.6,2.9-0.1,3.5-1c-0.1,0.3-0.1,0.6-0.1,1h1.2c0-1.1,0.2-2,0.3-3c0.1-0.8,0.4-1.7,0.4-2.4C44.8,10.1,42,10.7,40.4,10.8z
		 M42.6,16c-0.7,0.7-2.6,0.9-2.4-0.7c0.2-1.3,1.6-1.6,3.2-1.4C43.2,14.5,43.1,15.5,42.6,16z"/>
</g>
</svg>
