<?xml version="1.0" encoding="UTF-8"?>
<svg viewBox="0 0 48 37" version="1.1" xmlns="http://www.w3.org/2000/svg" xmlns:xlink="http://www.w3.org/1999/xlink">
    <!-- Generator: Sketch 45.1 (43504) - http://www.bohemiancoding.com/sketch -->
    <title>logo-mastercard</title>
    <desc>Created with Sketch.</desc>
    <defs></defs>
    <g id="Payment-Methods" stroke="none" stroke-width="1" fill="none" fill-rule="evenodd">
        <g id="103_Payment-methods" transform="translate(-696.000000, -185.000000)" fill-rule="nonzero">
            <g id="Credit-Card-1" transform="translate(432.000000, 160.000000)">
                <g id="logo-mastercard" transform="translate(264.000000, 25.000000)">
                    <path d="M8.84600281,36.5033739 L8.84600281,34.0992 C8.84600281,33.1776 8.28050491,32.5765565 7.31107994,32.5765565 C6.82636746,32.5765565 6.30126227,32.7368348 5.93772791,33.2577391 C5.65497896,32.8169739 5.25105189,32.5765565 4.64516129,32.5765565 C4.24123422,32.5765565 3.83730715,32.6967652 3.5141655,33.1375304 L3.5141655,32.6566957 L2.66591865,32.6566957 L2.66591865,36.5033739 L3.5141655,36.5033739 L3.5141655,34.379687 C3.5141655,33.6985043 3.87769986,33.3779478 4.44319776,33.3779478 C5.00869565,33.3779478 5.2914446,33.7385739 5.2914446,34.379687 L5.2914446,36.5033739 L6.13969144,36.5033739 L6.13969144,34.379687 C6.13969144,33.6985043 6.54361851,33.3779478 7.0687237,33.3779478 C7.6342216,33.3779478 7.91697055,33.7385739 7.91697055,34.379687 L7.91697055,36.5033739 L8.84600281,36.5033739 Z M21.4081346,32.6566957 L20.0347826,32.6566957 L20.0347826,31.4946783 L19.1865358,31.4946783 L19.1865358,32.6566957 L18.4190743,32.6566957 L18.4190743,33.4180174 L19.1865358,33.4180174 L19.1865358,35.1810783 C19.1865358,36.0626087 19.5500701,36.583513 20.5194951,36.583513 C20.8830295,36.583513 21.2869565,36.4633043 21.5697055,36.3030261 L21.3273492,35.5817739 C21.084993,35.7420522 20.802244,35.7821217 20.6002805,35.7821217 C20.1963534,35.7821217 20.0347826,35.5417043 20.0347826,35.1410087 L20.0347826,33.4180174 L21.4081346,33.4180174 L21.4081346,32.6566957 Z M28.5980365,32.5765565 C28.113324,32.5765565 27.7901823,32.8169739 27.5882188,33.1375304 L27.5882188,32.6566957 L26.7399719,32.6566957 L26.7399719,36.5033739 L27.5882188,36.5033739 L27.5882188,34.3396174 C27.5882188,33.6985043 27.8709677,33.3378783 28.3960729,33.3378783 C28.5576438,33.3378783 28.7596073,33.3779478 28.9211781,33.4180174 L29.1635344,32.6166261 C29.0019635,32.5765565 28.7596073,32.5765565 28.5980365,32.5765565 L28.5980365,32.5765565 Z M17.7323983,32.9772522 C17.3284712,32.6967652 16.7629734,32.5765565 16.1570827,32.5765565 C15.1876578,32.5765565 14.5413745,33.0573913 14.5413745,33.818713 C14.5413745,34.4598261 15.026087,34.8204522 15.8743338,34.9406609 L16.2782609,34.9807304 C16.7225806,35.0608696 16.9649369,35.1810783 16.9649369,35.3814261 C16.9649369,35.661913 16.6417952,35.8622609 16.0762973,35.8622609 C15.5107994,35.8622609 15.0664797,35.661913 14.7837307,35.4615652 L14.3798036,36.1026783 C14.8241234,36.4232348 15.430014,36.583513 16.0359046,36.583513 C17.1669004,36.583513 17.8131837,36.0626087 17.8131837,35.3413565 C17.8131837,34.6601739 17.2880785,34.2995478 16.4802244,34.1793391 L16.0762973,34.1392696 C15.712763,34.0992 15.430014,34.0190609 15.430014,33.7786435 C15.430014,33.4981565 15.712763,33.3378783 16.1570827,33.3378783 C16.6417952,33.3378783 17.1265077,33.5382261 17.368864,33.6584348 L17.7323983,32.9772522 Z M40.2715288,32.5765565 C39.7868163,32.5765565 39.4636746,32.8169739 39.2617111,33.1375304 L39.2617111,32.6566957 L38.4134642,32.6566957 L38.4134642,36.5033739 L39.2617111,36.5033739 L39.2617111,34.3396174 C39.2617111,33.6985043 39.54446,33.3378783 40.0695652,33.3378783 C40.231136,33.3378783 40.4330996,33.3779478 40.5946704,33.4180174 L40.8370266,32.6166261 C40.6754558,32.5765565 40.4330996,32.5765565 40.2715288,32.5765565 L40.2715288,32.5765565 Z M29.4462833,34.5800348 C29.4462833,35.7420522 30.2541374,36.583513 31.5063114,36.583513 C32.0718093,36.583513 32.4757363,36.4633043 32.8796634,36.1427478 L32.4757363,35.4615652 C32.1525947,35.7019826 31.829453,35.8221913 31.4659187,35.8221913 C30.7792426,35.8221913 30.2945302,35.3413565 30.2945302,34.5800348 C30.2945302,33.8587826 30.7792426,33.3779478 31.4659187,33.3378783 C31.829453,33.3378783 32.1525947,33.458087 32.4757363,33.6985043 L32.8796634,33.0173217 C32.4757363,32.6967652 32.0718093,32.5765565 31.5063114,32.5765565 C30.2541374,32.5765565 29.4462833,33.4180174 29.4462833,34.5800348 L29.4462833,34.5800348 Z M37.2824684,34.5800348 L37.2824684,32.6566957 L36.4342216,32.6566957 L36.4342216,33.1375304 C36.1514727,32.7769043 35.7475456,32.5765565 35.2224404,32.5765565 C34.1318373,32.5765565 33.2835905,33.4180174 33.2835905,34.5800348 C33.2835905,35.7420522 34.1318373,36.583513 35.2224404,36.583513 C35.7879383,36.583513 36.1918654,36.3831652 36.4342216,36.0225391 L36.4342216,36.5033739 L37.2824684,36.5033739 L37.2824684,34.5800348 Z M34.17223,34.5800348 C34.17223,33.8988522 34.6165498,33.3378783 35.3436185,33.3378783 C36.0302945,33.3378783 36.515007,33.8587826 36.515007,34.5800348 C36.515007,35.2612174 36.0302945,35.8221913 35.3436185,35.8221913 C34.6165498,35.7821217 34.17223,35.2612174 34.17223,34.5800348 L34.17223,34.5800348 Z M24.0336606,32.5765565 C22.9026648,32.5765565 22.0948107,33.3779478 22.0948107,34.5800348 C22.0948107,35.7821217 22.9026648,36.583513 24.0740533,36.583513 C24.6395512,36.583513 25.2050491,36.4232348 25.6493689,36.0626087 L25.2454418,35.4615652 C24.9223001,35.7019826 24.5183731,35.8622609 24.114446,35.8622609 C23.5893408,35.8622609 23.0642356,35.6218435 22.9430575,34.9406609 L25.8109397,34.9406609 C25.8109397,34.8204522 25.8109397,34.740313 25.8109397,34.6201043 C25.8513324,33.3779478 25.1242637,32.5765565 24.0336606,32.5765565 L24.0336606,32.5765565 Z M24.0336606,33.2978087 C24.5587658,33.2978087 24.9223001,33.6183652 25.0030856,34.2194087 L22.9834502,34.2194087 C23.0642356,33.6985043 23.42777,33.2978087 24.0336606,33.2978087 L24.0336606,33.2978087 Z M45.0782609,34.5800348 L45.0782609,31.1340522 L44.230014,31.1340522 L44.230014,33.1375304 C43.9472651,32.7769043 43.543338,32.5765565 43.0182328,32.5765565 C41.9276297,32.5765565 41.0793829,33.4180174 41.0793829,34.5800348 C41.0793829,35.7420522 41.9276297,36.583513 43.0182328,36.583513 C43.5837307,36.583513 43.9876578,36.3831652 44.230014,36.0225391 L44.230014,36.5033739 L45.0782609,36.5033739 L45.0782609,34.5800348 Z M41.9680224,34.5800348 C41.9680224,33.8988522 42.4123422,33.3378783 43.1394109,33.3378783 C43.826087,33.3378783 44.3107994,33.8587826 44.3107994,34.5800348 C44.3107994,35.2612174 43.826087,35.8221913 43.1394109,35.8221913 C42.4123422,35.7821217 41.9680224,35.2612174 41.9680224,34.5800348 L41.9680224,34.5800348 Z M13.6123422,34.5800348 L13.6123422,32.6566957 L12.7640954,32.6566957 L12.7640954,33.1375304 C12.4813464,32.7769043 12.0774194,32.5765565 11.5523142,32.5765565 C10.4617111,32.5765565 9.61346424,33.4180174 9.61346424,34.5800348 C9.61346424,35.7420522 10.4617111,36.583513 11.5523142,36.583513 C12.1178121,36.583513 12.5217391,36.3831652 12.7640954,36.0225391 L12.7640954,36.5033739 L13.6123422,36.5033739 L13.6123422,34.5800348 Z M10.4617111,34.5800348 C10.4617111,33.8988522 10.9060309,33.3378783 11.6330996,33.3378783 C12.3197756,33.3378783 12.8044881,33.8587826 12.8044881,34.5800348 C12.8044881,35.2612174 12.3197756,35.8221913 11.6330996,35.8221913 C10.9060309,35.7821217 10.4617111,35.2612174 10.4617111,34.5800348 Z" id="XMLID_1775_" fill="#000000"></path>
                    <g id="XMLID_328_">
                        <rect id="Rectangle-path" fill="#FF5F00" x="17.4496494" y="3.44598261" width="12.7237027" height="22.6793739"></rect>
                        <path d="M18.2575035,14.7856696 C18.2575035,10.1776696 20.4387097,6.09057391 23.7913043,3.44598261 C21.3273492,1.52264348 18.2171108,0.360626087 14.8241234,0.360626087 C6.78597475,0.360626087 0.282748948,6.81182609 0.282748948,14.7856696 C0.282748948,22.759513 6.78597475,29.210713 14.8241234,29.210713 C18.2171108,29.210713 21.3273492,28.0486957 23.7913043,26.1253565 C20.4387097,23.5208348 18.2575035,19.3936696 18.2575035,14.7856696 Z" id="XMLID_330_" fill="#EB001B"></path>
                        <path d="M47.3402525,14.7856696 C47.3402525,22.759513 40.8370266,29.210713 32.798878,29.210713 C29.4058906,29.210713 26.2956522,28.0486957 23.8316971,26.1253565 C27.2246844,23.4807652 29.3654979,19.3936696 29.3654979,14.7856696 C29.3654979,10.1776696 27.1842917,6.09057391 23.8316971,3.44598261 C26.2956522,1.52264348 29.4058906,0.360626087 32.798878,0.360626087 C40.8370266,0.360626087 47.3402525,6.85189565 47.3402525,14.7856696 Z" id="Shape" fill="#F79E1B"></path>
                    </g>
                </g>
            </g>
        </g>
    </g>
</svg>
