<?xml version="1.0" encoding="utf-8"?>
<!-- Generator: Adobe Illustrator 19.2.0, SVG Export Plug-In . SVG Version: 6.00 Build 0)  -->
<svg version="1.1" id="Layer_1" xmlns="http://www.w3.org/2000/svg" xmlns:xlink="http://www.w3.org/1999/xlink" x="0px" y="0px"
	 viewBox="0 0 66.7 21.5" style="enable-background:new 0 0 66.7 21.5;" xml:space="preserve">
<style type="text/css">
	.st0{fill:url(#SVGID_1_);}
</style>
<linearGradient id="SVGID_1_" gradientUnits="userSpaceOnUse" x1="6.8929" y1="20.956" x2="62.0537" y2="-0.2008">
	<stop  offset="0" style="stop-color:#11185B"/>
	<stop  offset="1" style="stop-color:#00299B"/>
</linearGradient>
<path class="st0" d="M25.3,0.4l-8.7,20.8h-5.7L6.6,4.6c-0.3-1-0.5-1.4-1.3-1.8C4,2.1,1.9,1.4,0,1l0.1-0.6h9.2c1.2,0,2.2,0.8,2.5,2.1
	l2.3,12l5.6-14.2H25.3z M47.6,14.4c0-5.5-7.6-5.8-7.5-8.3c0-0.7,0.7-1.5,2.3-1.7c0.8-0.1,2.9-0.2,5.3,0.9l0.9-4.4
	c-1.3-0.5-3-0.9-5-0.9c-5.3,0-9.1,2.8-9.1,6.9c0,3,2.7,4.7,4.7,5.7c2.1,1,2.8,1.7,2.8,2.6c0,1.4-1.7,2-3.2,2c-2.7,0-4.3-0.7-5.5-1.3
	l-1,4.6c1.3,0.6,3.6,1.1,6,1.1C43.9,21.5,47.6,18.7,47.6,14.4 M61.7,21.2h5L62.3,0.4h-4.6c-1,0-1.9,0.6-2.3,1.5l-8.1,19.3H53
	l1.1-3.1H61L61.7,21.2z M55.7,13.8L58.5,6l1.6,7.8H55.7z M33,0.4l-4.5,20.8h-5.4l4.5-20.8H33z"/>
</svg>
